<?xml version="1.0" encoding="utf-8"?>
<!-- Generator: Adobe Illustrator 27.2.0, SVG Export Plug-In . SVG Version: 6.00 Build 0)  -->
<svg version="1.1" xmlns="http://www.w3.org/2000/svg" xmlns:xlink="http://www.w3.org/1999/xlink" x="0px" y="0px"
	 viewBox="0 0 1500 1766" style="enable-background:new 0 0 1500 1766;" xml:space="preserve">
<style type="text/css">
	.st0{display:none;}
	.st1{display:inline;fill:#757575;}
	.st2{display:inline;}
	.st3{fill:#FFFFFF;}
	.st4{fill:url(#SVGID_1_);}
	.st5{fill:url(#SVGID_00000005983298906048807240000009347929735372842391_);}
	.st6{fill:url(#SVGID_00000031208360309170390920000000236654269907592628_);}
	.st7{fill:url(#SVGID_00000068650149931045019870000007046469150787225261_);}
	.st8{fill:url(#SVGID_00000164495333575889390030000009956050710926044860_);}
	.st9{fill:url(#SVGID_00000072249682724976886570000014153814240684230272_);}
	.st10{fill:url(#SVGID_00000124156166362808463290000004837326666446889624_);}
	.st11{fill:url(#SVGID_00000117645344064167127220000017440216601944514730_);}
	.st12{fill:url(#SVGID_00000136371972860717743150000015701214821337440417_);}
	.st13{fill:url(#SVGID_00000148643606577430388950000015471234387034277305_);}
	.st14{fill:url(#SVGID_00000106149324280187034500000016289730489324664499_);}
	.st15{display:inline;fill:#FFFFFF;}
	.st16{fill:url(#SVGID_00000101062253424861900180000001180440521614568620_);}
	.st17{fill:url(#SVGID_00000116208387917504649500000003788398726785258371_);}
	.st18{fill:url(#SVGID_00000049927861769791707460000002116520949994545571_);}
	.st19{fill:url(#SVGID_00000039850827998503307720000007503409203948594108_);}
	.st20{fill:url(#SVGID_00000080917186067077761970000016944854107753454003_);}
	.st21{fill:url(#SVGID_00000020375020886118488070000000003622789241088401_);}
	.st22{fill:url(#SVGID_00000069400364745526234960000016096204573854670216_);}
	.st23{fill:url(#SVGID_00000096743811931172743910000005790481429761622943_);}
	.st24{fill:url(#SVGID_00000051372015044981592300000014688582401637889422_);}
	.st25{fill:url(#SVGID_00000047030049751621027600000015509483211839789218_);}
	.st26{fill:url(#SVGID_00000159464265222410784550000014557769030128681384_);}
	.st27{fill:url(#SVGID_00000148643761733194568480000000714923994422200721_);}
	.st28{fill:url(#SVGID_00000057142492152843179160000001145902999827199892_);}
	.st29{display:inline;fill:url(#SVGID_00000127762487917980148360000000692297266027626941_);}
	.st30{display:none;fill:#757575;}
	.st31{fill:#E56620;}
</style>
<g id="Camada_1" class="st0">
	<rect x="1" y="0" class="st1" width="1497" height="1766"/>
	
		<image style="overflow:visible;enable-background:new    ;" width="1500" height="1766" xlink:href="67D62742.png"  transform="matrix(0.9993 0 0 0.9993 1 0)">
	</image>
	<g id="logo_cópia" class="st2">
		<path id="X_3_" class="st3" d="M0,154.3l1026.8,1385c52.7,71.1,135.9,113.1,224.4,113.1H1500L463.1,253.8
			c-46.4-62.6-119.7-99.5-197.5-99.5L0,154.3L0,154.3z"/>
		<g id="color_2_">
			<g id=":._2_">
				
					<linearGradient id="SVGID_1_" gradientUnits="userSpaceOnUse" x1="1509.0465" y1="-1407.1305" x2="205.0887" y2="239.3951" gradientTransform="matrix(1 0 0 1 0 1484.5354)">
					<stop  offset="0" style="stop-color:#0071BC"/>
					<stop  offset="0.5" style="stop-color:#0071BC"/>
					<stop  offset="1" style="stop-color:#4B93EE"/>
				</linearGradient>
				<polygon class="st4" points="259.7,1703.3 210.1,1666.3 173.1,1716 222.8,1753 				"/>
				
					<linearGradient id="SVGID_00000081611108721517263220000010865980689362360227_" gradientUnits="userSpaceOnUse" x1="1556.0425" y1="-1369.9153" x2="252.0841" y2="276.6102" gradientTransform="matrix(1 0 0 1 0 1484.5354)">
					<stop  offset="0" style="stop-color:#0071BC"/>
					<stop  offset="0.5" style="stop-color:#0071BC"/>
					<stop  offset="1" style="stop-color:#4B93EE"/>
				</linearGradient>
				<polygon style="fill:url(#SVGID_00000081611108721517263220000010865980689362360227_);" points="346.3,1690.5 296.6,1653.5 
					259.7,1703.3 309.3,1740.2 				"/>
				
					<linearGradient id="SVGID_00000173140907869647202070000012421625291729521026_" gradientUnits="userSpaceOnUse" x1="3024.3313" y1="-3470.5217" x2="-83.6879" y2="454.0173" gradientTransform="matrix(1 0 0 -1 0 1765.4646)">
					<stop  offset="0" style="stop-color:#0071BC"/>
					<stop  offset="0.5" style="stop-color:#0071BC"/>
					<stop  offset="1" style="stop-color:#4B93EE"/>
				</linearGradient>
				<polygon style="fill:url(#SVGID_00000173140907869647202070000012421625291729521026_);" points="197.4,1579.6 147.7,1542.6 
					184.6,1492.9 135,1455.9 61.2,1555.3 61.2,1555.3 24.2,1605.1 73.9,1642.1 110.3,1593 110.3,1593 110.8,1592.4 160.4,1629.3 
									"/>
				
					<linearGradient id="SVGID_00000162349017369939747880000015666725457023166622_" gradientUnits="userSpaceOnUse" x1="1407.6753" y1="-1487.7635" x2="103.7196" y2="158.7585" gradientTransform="matrix(1 0 0 1 0 1484.5354)">
					<stop  offset="0" style="stop-color:#0071BC"/>
					<stop  offset="0.5" style="stop-color:#0071BC"/>
					<stop  offset="1" style="stop-color:#4B93EE"/>
				</linearGradient>
				<polygon style="fill:url(#SVGID_00000162349017369939747880000015666725457023166622_);" points="221.5,1443.2 271.2,1480.2 
					234.2,1529.9 184.6,1492.9 				"/>
			</g>
			<g id="X_2_">
				
					<linearGradient id="SVGID_00000049924242590261018660000004762181334458721200_" gradientUnits="userSpaceOnUse" x1="1365.8738" y1="-1522.8862" x2="61.9157" y2="123.6389" gradientTransform="matrix(1 0 0 1 0 1484.5354)">
					<stop  offset="0" style="stop-color:#FF6A32"/>
					<stop  offset="0.5" style="stop-color:#FF007E"/>
					<stop  offset="1" style="stop-color:#842BD0"/>
				</linearGradient>
				<polygon style="fill:url(#SVGID_00000049924242590261018660000004762181334458721200_);" points="1226.6,89.3 1276.2,126.3 
					1313.1,76.6 1263.5,39.6 				"/>
				
					<linearGradient id="SVGID_00000113336182064881352660000016409115335878302904_" gradientUnits="userSpaceOnUse" x1="1511.2632" y1="-1407.5322" x2="207.305" y2="238.9929" gradientTransform="matrix(1 0 0 1 0 1484.5354)">
					<stop  offset="0" style="stop-color:#FF6A32"/>
					<stop  offset="0.5" style="stop-color:#FF007E"/>
					<stop  offset="1" style="stop-color:#842BD0"/>
				</linearGradient>
				<polygon style="fill:url(#SVGID_00000113336182064881352660000016409115335878302904_);" points="1375.4,200.2 1425.1,237.2 
					1462,187.5 1412.3,150.5 				"/>
				
					<linearGradient id="SVGID_00000006668046406158413330000014223468713388773519_" gradientUnits="userSpaceOnUse" x1="1318.88" y1="-1560.1033" x2="14.922" y2="86.4217" gradientTransform="matrix(1 0 0 1 0 1484.5354)">
					<stop  offset="0" style="stop-color:#FF6A32"/>
					<stop  offset="0.5" style="stop-color:#FF007E"/>
					<stop  offset="1" style="stop-color:#842BD0"/>
				</linearGradient>
				<polygon style="fill:url(#SVGID_00000006668046406158413330000014223468713388773519_);" points="1140,102.1 1189.6,139 
					1226.6,89.3 1176.9,52.3 				"/>
				
					<linearGradient id="SVGID_00000113346545000710313410000001378053290638403751_" gradientUnits="userSpaceOnUse" x1="1464.269" y1="-1444.7489" x2="160.3107" y2="201.7765" gradientTransform="matrix(1 0 0 1 0 1484.5354)">
					<stop  offset="0" style="stop-color:#FF6A32"/>
					<stop  offset="0.5" style="stop-color:#FF007E"/>
					<stop  offset="1" style="stop-color:#842BD0"/>
				</linearGradient>
				<polygon style="fill:url(#SVGID_00000113346545000710313410000001378053290638403751_);" points="1325.8,163.2 1288.9,213 
					1338.5,250 1375.4,200.2 				"/>
				
					<linearGradient id="SVGID_00000080172626004246705270000017357411838958571188_" gradientUnits="userSpaceOnUse" x1="1514.2278" y1="-1405.0404" x2="210.2724" y2="241.4812" gradientTransform="matrix(1 0 0 1 0 1484.5354)">
					<stop  offset="0" style="stop-color:#FF6A32"/>
					<stop  offset="0.5" style="stop-color:#FF007E"/>
					<stop  offset="1" style="stop-color:#842BD0"/>
				</linearGradient>
				<polygon style="fill:url(#SVGID_00000080172626004246705270000017357411838958571188_);" points="1388.2,287 1338.5,250 
					1301.6,299.7 1351.3,336.7 				"/>
				
					<linearGradient id="SVGID_00000084530320167209009900000006418312929567075001_" gradientUnits="userSpaceOnUse" x1="1467.2465" y1="-1442.2478" x2="163.2889" y2="204.2766" gradientTransform="matrix(1 0 0 1 0 1484.5354)">
					<stop  offset="0" style="stop-color:#FF6A32"/>
					<stop  offset="0.5" style="stop-color:#FF007E"/>
					<stop  offset="1" style="stop-color:#842BD0"/>
				</linearGradient>
				<polygon style="fill:url(#SVGID_00000084530320167209009900000006418312929567075001_);" points="1264.7,349.4 1215.1,312.4 
					1252,262.7 1301.6,299.7 				"/>
				
					<linearGradient id="SVGID_00000111888312483212462550000009635058628465064578_" gradientUnits="userSpaceOnUse" x1="1438.069" y1="-1465.7704" x2="132.9716" y2="182.1933" gradientTransform="matrix(1 0 0 1 0 1484.5354)">
					<stop  offset="0" style="stop-color:#FFB000"/>
					<stop  offset="0.3" style="stop-color:#FF007E"/>
					<stop  offset="0.65" style="stop-color:#842BD0"/>
					<stop  offset="1" style="stop-color:#3FA9F5"/>
				</linearGradient>
				<polyline style="fill:url(#SVGID_00000111888312483212462550000009635058628465064578_);" points="550.4,896.3 171.9,1406.1 
					221.5,1443.1 258.4,1393.4 308.1,1430.4 271.1,1480.1 320.7,1517.1 283.9,1566.8 234.3,1529.8 197.3,1579.6 296.6,1653.6 
					333.5,1603.8 383.1,1640.8 420,1591.1 370.4,1554.1 407.3,1504.4 457,1541.3 743.1,1155.9 741.7,1156.1 936,895 935.9,896.3 
					1314.4,386.4 1264.7,349.4 1227.8,399.1 1178.2,362.2 1215.1,312.4 1165.5,275.4 1202.4,225.7 1252,262.7 1288.9,213 
					1189.7,139 1152.7,188.7 1103.1,151.7 1066.2,201.5 1115.9,238.5 1078.9,288.2 1029.3,251.2 743.1,636.6 				"/>
			</g>
		</g>
	</g>
	<g id="logo">
		<path id="X_5_" class="st15" d="M0,155.6l1026,1383.9c52.7,71.1,135.8,113,224.2,113h248.6L462.7,255.1
			c-46.4-62.6-119.6-99.5-197.4-99.5L0,155.6L0,155.6z"/>
		<g id="color_1_" class="st2">
			<g id=":._1_">
				
					<linearGradient id="SVGID_00000155827667516598581630000013472030580190690965_" gradientUnits="userSpaceOnUse" x1="1507.7743" y1="-1405.7227" x2="204.9136" y2="239.4176" gradientTransform="matrix(1 0 0 1 0 1484.5354)">
					<stop  offset="0" style="stop-color:#0071BC"/>
					<stop  offset="0.5" style="stop-color:#0071BC"/>
					<stop  offset="1" style="stop-color:#4B93EE"/>
				</linearGradient>
				<polygon style="fill:url(#SVGID_00000155827667516598581630000013472030580190690965_);" points="259.5,1703.3 209.9,1666.3 
					173,1716 222.6,1753 				"/>
				
					<linearGradient id="SVGID_00000141453698720036845480000012619274720618413200_" gradientUnits="userSpaceOnUse" x1="1362.5115" y1="-1520.9827" x2="59.648" y2="124.1602" gradientTransform="matrix(1 0 0 1 0 1484.5354)">
					<stop  offset="0" style="stop-color:#0071BC"/>
					<stop  offset="0.5" style="stop-color:#0071BC"/>
					<stop  offset="1" style="stop-color:#4B93EE"/>
				</linearGradient>
				<polygon style="fill:url(#SVGID_00000141453698720036845480000012619274720618413200_);" points="110.7,1592.5 61.1,1555.5 
					24.2,1605.2 73.8,1642.2 				"/>
				
					<linearGradient id="SVGID_00000129190887871017314320000001389352862209689785_" gradientUnits="userSpaceOnUse" x1="1554.7345" y1="-1368.5356" x2="251.8732" y2="276.6045" gradientTransform="matrix(1 0 0 1 0 1484.5354)">
					<stop  offset="0" style="stop-color:#0071BC"/>
					<stop  offset="0.5" style="stop-color:#0071BC"/>
					<stop  offset="1" style="stop-color:#4B93EE"/>
				</linearGradient>
				<polygon style="fill:url(#SVGID_00000129190887871017314320000001389352862209689785_);" points="346,1690.6 296.4,1653.6 
					259.5,1703.3 309.1,1740.3 				"/>
				
					<linearGradient id="SVGID_00000159457113946813275500000013448531340115832477_" gradientUnits="userSpaceOnUse" x1="1409.4612" y1="-1483.7946" x2="106.6023" y2="161.3425" gradientTransform="matrix(1 0 0 1 0 1484.5354)">
					<stop  offset="0" style="stop-color:#0071BC"/>
					<stop  offset="0.5" style="stop-color:#0071BC"/>
					<stop  offset="1" style="stop-color:#4B93EE"/>
				</linearGradient>
				<polygon style="fill:url(#SVGID_00000159457113946813275500000013448531340115832477_);" points="160.3,1629.4 197.2,1579.7 
					147.6,1542.8 110.7,1592.5 				"/>
				
					<linearGradient id="SVGID_00000013899306339025127010000017842256089597651847_" gradientUnits="userSpaceOnUse" x1="1359.5435" y1="-1523.4617" x2="56.6856" y2="121.675" gradientTransform="matrix(1 0 0 1 0 1484.5354)">
					<stop  offset="0" style="stop-color:#0071BC"/>
					<stop  offset="0.5" style="stop-color:#0071BC"/>
					<stop  offset="1" style="stop-color:#4B93EE"/>
				</linearGradient>
				<polygon style="fill:url(#SVGID_00000013899306339025127010000017842256089597651847_);" points="98,1505.8 147.6,1542.8 
					184.5,1493.1 134.9,1456.2 				"/>
				
					<linearGradient id="SVGID_00000166656527473432786460000014386282420940886442_" gradientUnits="userSpaceOnUse" x1="1406.4924" y1="-1486.2848" x2="103.6338" y2="158.8519" gradientTransform="matrix(1 0 0 1 0 1484.5354)">
					<stop  offset="0" style="stop-color:#0071BC"/>
					<stop  offset="0.5" style="stop-color:#0071BC"/>
					<stop  offset="1" style="stop-color:#4B93EE"/>
				</linearGradient>
				<polygon style="fill:url(#SVGID_00000166656527473432786460000014386282420940886442_);" points="221.3,1443.4 270.9,1480.4 
					234.1,1530.1 184.4,1493.1 				"/>
			</g>
			<g id="X_1_">
				
					<linearGradient id="SVGID_00000112599574955372804520000001242327850371754370_" gradientUnits="userSpaceOnUse" x1="1364.7235" y1="-1521.3799" x2="61.8625" y2="123.7599" gradientTransform="matrix(1 0 0 1 0 1484.5354)">
					<stop  offset="0" style="stop-color:#FF6A32"/>
					<stop  offset="0.5" style="stop-color:#FF007E"/>
					<stop  offset="1" style="stop-color:#842BD0"/>
				</linearGradient>
				<polygon style="fill:url(#SVGID_00000112599574955372804520000001242327850371754370_);" points="1225.5,90.7 1275.1,127.7 
					1312,78 1262.4,41 				"/>
				
					<linearGradient id="SVGID_00000041287020302458098730000009232652488704377248_" gradientUnits="userSpaceOnUse" x1="1509.99" y1="-1406.1234" x2="207.1289" y2="239.0164" gradientTransform="matrix(1 0 0 1 0 1484.5354)">
					<stop  offset="0" style="stop-color:#FF6A32"/>
					<stop  offset="0.5" style="stop-color:#FF007E"/>
					<stop  offset="1" style="stop-color:#842BD0"/>
				</linearGradient>
				<polygon style="fill:url(#SVGID_00000041287020302458098730000009232652488704377248_);" points="1374.3,201.5 1423.9,238.5 
					1460.8,188.8 1411.2,151.9 				"/>
				
					<linearGradient id="SVGID_00000034770068304107220150000018330496766711860137_" gradientUnits="userSpaceOnUse" x1="1317.7654" y1="-1558.5686" x2="14.9045" y2="86.571" gradientTransform="matrix(1 0 0 1 0 1484.5354)">
					<stop  offset="0" style="stop-color:#FF6A32"/>
					<stop  offset="0.5" style="stop-color:#FF007E"/>
					<stop  offset="1" style="stop-color:#842BD0"/>
				</linearGradient>
				<polygon style="fill:url(#SVGID_00000034770068304107220150000018330496766711860137_);" points="1139,103.4 1188.6,140.4 
					1225.5,90.7 1175.9,53.7 				"/>
				
					<linearGradient id="SVGID_00000011017981875703953060000015976210037959373753_" gradientUnits="userSpaceOnUse" x1="1463.0371" y1="-1443.3075" x2="160.1758" y2="201.8327" gradientTransform="matrix(1 0 0 1 0 1484.5354)">
					<stop  offset="0" style="stop-color:#FF6A32"/>
					<stop  offset="0.5" style="stop-color:#FF007E"/>
					<stop  offset="1" style="stop-color:#842BD0"/>
				</linearGradient>
				<polygon style="fill:url(#SVGID_00000011017981875703953060000015976210037959373753_);" points="1324.7,164.6 1287.8,214.3 
					1337.4,251.2 1374.3,201.5 				"/>
				
					<linearGradient id="SVGID_00000041261660597818666480000012346847592687447958_" gradientUnits="userSpaceOnUse" x1="1512.9531" y1="-1403.6328" x2="210.0948" y2="241.5036" gradientTransform="matrix(1 0 0 1 0 1484.5354)">
					<stop  offset="0" style="stop-color:#FF6A32"/>
					<stop  offset="0.5" style="stop-color:#FF007E"/>
					<stop  offset="1" style="stop-color:#842BD0"/>
				</linearGradient>
				<polygon style="fill:url(#SVGID_00000041261660597818666480000012346847592687447958_);" points="1387,288.2 1337.4,251.2 
					1300.5,300.9 1350.1,337.9 				"/>
				
					<linearGradient id="SVGID_00000108295554803323788860000017138700282968807576_" gradientUnits="userSpaceOnUse" x1="1466.01" y1="-1440.8099" x2="163.1497" y2="204.3289" gradientTransform="matrix(1 0 0 1 0 1484.5354)">
					<stop  offset="0" style="stop-color:#FF6A32"/>
					<stop  offset="0.5" style="stop-color:#FF007E"/>
					<stop  offset="1" style="stop-color:#842BD0"/>
				</linearGradient>
				<polygon style="fill:url(#SVGID_00000108295554803323788860000017138700282968807576_);" points="1263.7,350.6 1214.1,313.6 
					1251,263.9 1300.5,300.9 				"/>
				
					<linearGradient id="SVGID_00000137128595100441531400000004332585934632100796_" gradientUnits="userSpaceOnUse" x1="1436.8589" y1="-1464.3115" x2="132.8595" y2="182.2657" gradientTransform="matrix(1 0 0 1 0 1484.5354)">
					<stop  offset="0" style="stop-color:#FFB000"/>
					<stop  offset="0.3" style="stop-color:#FF007E"/>
					<stop  offset="0.65" style="stop-color:#842BD0"/>
					<stop  offset="1" style="stop-color:#3FA9F5"/>
				</linearGradient>
				<polyline style="fill:url(#SVGID_00000137128595100441531400000004332585934632100796_);" points="549.9,897 171.8,1406.4 
					221.4,1443.4 258.2,1393.7 307.8,1430.7 270.9,1480.4 320.5,1517.3 283.6,1567 234.1,1530 197.2,1579.7 296.3,1653.7 
					333.2,1603.9 382.8,1640.9 419.7,1591.2 370.1,1554.2 407,1504.6 456.6,1541.5 742.5,1156.4 741,1156.6 935.2,895.7 935.1,897 
					1313.3,387.6 1263.6,350.6 1226.8,400.3 1177.2,363.3 1214,313.6 1164.5,276.7 1201.4,227 1250.9,264 1287.8,214.3 
					1188.7,140.4 1151.8,190.1 1102.2,153.1 1065.3,202.8 1114.9,239.8 1078,289.4 1028.4,252.4 742.5,637.6 				"/>
			</g>
		</g>
		
			<linearGradient id="SVGID_00000053526431161800385710000006001984002247774595_" gradientUnits="userSpaceOnUse" x1="91.82" y1="464.9646" x2="177.18" y2="464.9646" gradientTransform="matrix(1 0 0 -1 0 1765.4646)">
			<stop  offset="0" style="stop-color:#FFFFFF"/>
			<stop  offset="1" style="stop-color:#000000"/>
		</linearGradient>
		<polygon style="display:inline;fill:url(#SVGID_00000053526431161800385710000006001984002247774595_);" points="177.2,1294.3 
			128.3,1257.8 91.8,1306.7 140.7,1343.2 		"/>
	</g>
</g>
<g id="novo">
	<rect x="1.5" class="st30" width="1497" height="1766"/>
	<g id="color_00000140002152010216419220000014404268675225183379_">
		<g id=":._00000172409535715661327650000001133355309724079788_">
			
				<rect x="185.9" y="1679" transform="matrix(0.5968 -0.8024 0.8024 0.5968 -1284.5502 863.3196)" class="st31" width="61.7" height="61.7"/>
			
				<rect x="272.2" y="1666.3" transform="matrix(0.5968 -0.8024 0.8024 0.5968 -1239.5941 927.4324)" class="st31" width="61.7" height="61.7"/>
			<polygon class="st31" points="161,1629.9 197.8,1580.4 148.4,1543.4 185.1,1494.2 135.6,1457.4 61.7,1556.7 61.7,1556.7 
				25.2,1605.8 74.7,1642.6 111.5,1593.1 111.5,1593.1 111.6,1592.9 			"/>
			
				<rect x="197.3" y="1457" transform="matrix(0.5968 -0.8024 0.8024 0.5968 -1101.868 783.0036)" class="st31" width="61.7" height="61.7"/>
		</g>
		<g id="X_00000178170029974745141160000016645414689125823884_">
			
				<rect x="1236.8" y="54.6" transform="matrix(0.5968 -0.8024 0.8024 0.5968 442.6141 1051.6053)" class="st31" width="61.7" height="61.7"/>
			
				<rect x="1385.2" y="165.5" transform="matrix(0.5968 -0.8024 0.8024 0.5968 413.4025 1215.401)" class="st31" width="61.7" height="61.7"/>
			
				<rect x="1150.6" y="67.2" transform="matrix(0.5968 -0.8024 0.8024 0.5968 397.6561 987.495)" class="st31" width="61.7" height="61.7"/>
			
				<rect x="1298.9" y="177.6" transform="matrix(0.5968 -0.8024 0.8024 0.5968 368.9373 1151.0463)" class="st31" width="61.7" height="61.7"/>
			
				<rect x="1311.7" y="263.8" transform="matrix(0.5968 -0.8024 0.8024 0.5968 304.8507 1196.0046)" class="st31" width="61.6" height="61.7"/>
			
				<rect x="1225.4" y="276.5" transform="matrix(0.5968 -0.8024 0.8024 0.5968 259.9314 1131.9209)" class="st31" width="61.7" height="61.7"/>
			<polyline class="st31" points="550.7,895 172.4,1407.9 221.8,1444.7 258.6,1395.2 308.1,1432 271.3,1481.5 320.7,1518.3 
				284,1567.7 234.5,1530.9 197.7,1580.4 296.6,1654 333.4,1604.5 382.9,1641.3 419.7,1591.9 370.2,1555.1 407,1505.6 456.5,1542.4 
				742.8,1153.3 741.3,1153.5 934.9,893.7 934.8,895.1 1312,387.9 1262.6,351.1 1225.8,400.5 1176.3,363.8 1213.1,314.3 
				1163.6,277.5 1200.4,228.1 1249.9,264.9 1286.7,215.4 1187.8,141.8 1151,191.3 1101.5,154.5 1064.7,203.9 1114.2,240.7 
				1077.4,290.2 1027.9,253.4 742.7,636.8 			"/>
		</g>
	</g>
	<path id="X_00000080184738134252207480000013036600521483302037_" class="st3" d="M2.2,157l1023.3,1377.7
		c52.5,70.7,135.5,112.4,223.6,112.4H1497L463.7,256c-46.3-62.3-119.3-99-196.9-99H2.2z"/>
</g>
</svg>
