<?xml version="1.0" encoding="utf-8"?>
<!-- Generator: Adobe Illustrator 27.2.0, SVG Export Plug-In . SVG Version: 6.00 Build 0)  -->
<svg version="1.1" id="conceito-01" xmlns="http://www.w3.org/2000/svg" xmlns:xlink="http://www.w3.org/1999/xlink" x="0px"
	 y="0px" viewBox="0 0 3282.5 1289.9" style="enable-background:new 0 0 3282.5 1289.9;" xml:space="preserve">
<style type="text/css">
	.st0{display:none;}
	.st1{opacity:0.2;}
	.st2{opacity:0;}
	.st3{opacity:7.690000e-02;}
	.st4{opacity:0.1538;}
	.st5{opacity:0.2308;}
	.st6{opacity:0.3077;}
	.st7{opacity:0.3846;}
	.st8{opacity:0.4615;}
	.st9{opacity:0.5385;}
	.st10{opacity:0.6154;}
	.st11{opacity:0.6923;}
	.st12{opacity:0.7692;}
	.st13{opacity:0.8462;}
	.st14{opacity:0.9231;}
	.st15{display:none;fill:url(#SVGID_1_);}
	.st16{display:none;fill:url(#SVGID_00000070810053567992379120000004886416051006910349_);}
	.st17{display:none;fill:#190033;}
	.st18{display:none;fill:url(#SVGID_00000114762619110567243160000004442099610056779953_);}
	.st19{display:none;fill:#C2D7FD;}
	.st20{display:none;fill:url(#SVGID_00000134243673149002944090000003880545667252399282_);}
	.st21{display:inline;fill:url(#caixa_00000097490964127421926500000016790599043008137900_);}
	.st22{display:inline;fill:#FFFFFF;}
	.st23{font-family:'Poppins-Bold';}
	.st24{font-size:39.115px;}
	.st25{display:inline;fill:#EDEDED;}
	
		.st26{display:inline;opacity:0.9;fill:url(#sombra_00000071522582687794492890000011131482504515265684_);enable-background:new    ;}
	.st27{display:inline;fill:url(#flexa_00000048472528477690434670000013957874938621089420_);}
	.st28{display:inline;}
	.st29{fill:url(#SVGID_00000123437253069115434880000014623730236280310201_);}
	.st30{fill:url(#SVGID_00000032611667961615646610000002556221124228096157_);}
	.st31{fill:url(#SVGID_00000100365846063801419210000017912541234485402044_);}
	.st32{fill:url(#SVGID_00000078045396830442925380000001288339060455079596_);}
	.st33{fill:url(#SVGID_00000165923757158814765060000001808429590323047046_);}
	.st34{fill:url(#SVGID_00000064326758704550679070000014893018609871187348_);}
	.st35{fill:url(#SVGID_00000020387990570676084080000013348370353144213380_);}
	.st36{fill:url(#SVGID_00000114033190023607297230000016366238752768049298_);}
	.st37{fill:url(#SVGID_00000170278472678705550350000013600788341479936167_);}
	.st38{fill:url(#SVGID_00000033369929635689716870000007895434010697272982_);}
	.st39{fill:url(#SVGID_00000081610131413238721980000012921342033099529101_);}
	.st40{fill:url(#SVGID_00000142858881105860135860000011045496788905842870_);}
	.st41{fill:url(#SVGID_00000127765900693273857500000010920222047244997277_);}
</style>
<image style="display:none;overflow:visible;enable-background:new    ;" width="1083" height="590" xlink:href="509C1010.png"  transform="matrix(0.56 0 0 0.56 1092.0507 -889.7623)">
</image>
<image style="display:none;overflow:visible;enable-background:new    ;" width="1038" height="988" xlink:href="509C1011.png"  transform="matrix(0.5619 0 0 0.5619 1587.4203 -964.4894)">
</image>
<image style="display:none;overflow:visible;enable-background:new    ;" width="1502" height="878" xlink:href="509C1017.png"  transform="matrix(0.5613 0 0 0.5613 1327.1991 -902.1232)">
</image>
<g id="background_1_" class="st0">
</g>
<g id="design">
	<g id="malha" class="st1">
		<g class="st2">
			<path d="M3282.4,1118.4c-66.2-47.7-134.6-89.1-204.8-123.9c-161.6-80-337.6-127.5-523.1-141.2c-180.7-13.3-375.5,5.1-578.8,54.7
				c-197.8,48.3-409.3,127.4-628.5,235.2c-428,210.5-836.5,186.4-1103.8,129.1c-92-19.7-174-44.6-243.2-69.4c0,0.9,0,1.8,0,2.7
				c69.1,24.7,150.9,49.5,242.6,69.2c170.4,36.5,341,48.4,507.2,35.4c207.8-16.2,409.1-71.7,598.4-164.8
				c776.5-381.9,1425.4-389.3,1934.2-23.6C3282.4,1120.8,3282.4,1119.6,3282.4,1118.4z"/>
		</g>
		<g class="st3">
			<path d="M3282.4,1128.5c-75-47.2-151.9-87.8-230-121.5c-164.5-71-340.5-113.8-523.2-127.2c-179.2-13.2-371.2,1.3-570.6,43.3
				c-194.7,41-403.5,109.5-620.6,203.8c-426.2,183.9-827.9,163.7-1089.9,114.4c-94.7-17.8-178.4-40.7-248.1-63.2c0,0.9,0,1.8,0,2.7
				c69.6,22.5,153.1,45.2,247.5,63c166.9,31.4,334.7,41.5,498.6,29.9c204.9-14.5,404.4-63.1,592.8-144.5
				c768.5-333.6,1407.5-333.5,1943.3,2.7C3282.4,1130.7,3282.4,1129.6,3282.4,1128.5z"/>
		</g>
		<g class="st4">
			<path d="M3282.5,1134.4c-248.5-132.7-505.2-207.6-778.2-227.6c-354.3-25.9-738.7,40.7-1175.1,203.5
				c-424,158.3-819,141.9-1075.7,100.3c-97.6-15.8-183.1-36.4-253.2-56.4c0,0.9,0,1.8,0,2.7c69.9,20,155.3,40.5,252.7,56.3
				c163.6,26.5,328.4,34.7,490,24.4c202-12.9,399.6-54.9,587-124.9C2098.9,825.8,2713,831,3282.5,1137
				C3282.5,1136.1,3282.5,1135.2,3282.5,1134.4z"/>
		</g>
		<g class="st5">
			<path d="M3282.5,1136.7c-267.2-116.6-532-183.5-803.3-203.2c-352.6-25.7-731.7,26.8-1158.9,160.4
				c-422.2,132.1-810.4,119.6-1061.7,85.9c-100.6-13.5-187.9-31.4-258.1-48.6c0,0.9,0,1.8,0,2.6c70.1,17.2,157.3,35,257.7,48.5
				c160.1,21.5,322.1,27.9,481.4,18.9c199.2-11.2,394.8-46.5,581.5-104.9c750.5-234.8,1351.8-224.3,1961.5,43
				C3282.5,1138.5,3282.5,1137.6,3282.5,1136.7z"/>
		</g>
		<g class="st6">
			<path d="M3282.5,1135.1c-290.5-99-558.3-155.3-828.5-174.9c-178.9-13-357.4-10-545.7,9.2c-189.7,19.4-385,54.7-596.9,108.1
				c-420.4,105.9-801.8,97.2-1047.8,71.4c-103.8-10.9-192.9-25.7-263-39.8c0,0.9,0,1.7,0,2.6c70.1,14,159.1,28.8,262.7,39.7
				c156.7,16.5,315.8,21,472.8,13.4c196.4-9.5,390.1-38,575.9-84.8c721.3-181.6,1308.4-166.8,1970.6,58
				C3282.5,1137,3282.5,1136,3282.5,1135.1z"/>
		</g>
		<g class="st7">
			<path d="M3282.4,1130.1c-324.4-79.6-594.1-124.6-853.7-143.4c-362.8-26.3-720.8-2.7-1126.4,74.4
				c-418.6,79.5-793.3,74.8-1033.9,56.8c-107.2-8-198-19.3-267.9-29.8c0,0.9,0,1.7,0,2.6c69.9,10.5,160.6,21.8,267.6,29.8
				c240.8,18,615.7,22.7,1034.6-56.9c768.2-146,1330.1-91.1,1979.6,69C3282.5,1131.8,3282.4,1130.9,3282.4,1130.1z"/>
		</g>
		<g class="st8">
			<path d="M3282.4,1121.8c-693.5-106.3-1233.5-173.4-1988.9-77.2c-416.9,53.1-784.8,52.3-1020.1,42.2
				c-110.8-4.7-203.4-11.9-272.7-18.5c0,0.9,0,1.7,0,2.6c69.4,6.6,161.9,13.8,272.6,18.5c235.3,10.1,603.4,10.9,1020.5-42.2
				c755.2-96.2,1295.1-29.1,1988.6,77.2C3282.4,1123.5,3282.4,1122.6,3282.4,1121.8z"/>
		</g>
		<g class="st9">
			<path d="M3282.3,1110.5c-193.1-12.4-370.9-27.3-544.2-42c-482.6-40.7-899.5-75.8-1453.5-40.3C702,1065.5,219.4,1057.1,0.8,1049.8
				c0,0.9,0,1.7,0,2.6c218.7,7.3,701.4,15.7,1284-21.7c553.8-35.5,970.5-0.3,1453.1,40.3c173.4,14.6,351.3,29.6,544.5,42
				C3282.3,1112.2,3282.3,1111.3,3282.3,1110.5z"/>
		</g>
		<g class="st10">
			<path d="M3282.2,1096.3c-395,7.9-720.9-17.1-1037.4-41.4c-297.3-22.8-604.8-46.4-969.1-43.1c-591.7,5.4-1069,16.9-1274.8,22.4
				c0,0.9,0,1.7,0,2.6c205.7-5.6,683.1-17.1,1274.9-22.4c364.3-3.3,671.6,20.3,968.9,43.1c276,21.2,559,42.9,888.8,42.9
				c48.5,0,98.1-0.5,148.8-1.5C3282.2,1098,3282.2,1097.1,3282.2,1096.3z"/>
		</g>
		<g class="st11">
			<path d="M3282.1,1079.9c-560.7,57.8-955.7,16.8-1406.2-30c-189.9-19.7-386.3-40.1-609.1-54.6c-602.1-39.2-1074,1.2-1265.9,22.9
				c0,0.9,0,1.7,0,2.6c191.6-21.6,663.5-62.1,1265.7-22.9c222.8,14.5,419.1,34.9,609,54.6c292.8,30.4,562.2,58.4,868.8,58.4
				c165.2,0,341.3-8.1,537.7-28.4C3282.1,1081.6,3282.1,1080.7,3282.1,1079.9z"/>
		</g>
		<g class="st12">
			<path d="M3281.9,1061c-671.9,121-1093,56.8-1615.1-22.9c-129.1-19.7-262.6-40.1-409-59.2c-410.2-53.7-751-38.9-964.7-17.1
				c-129.5,13.2-229.2,30.6-292.2,43.4c0,0.9,0,1.7,0,2.6c62.9-12.8,162.7-30.2,292.5-43.5c213.5-21.8,554.1-36.6,964.1,17.1
				c146.4,19.2,279.8,39.5,408.9,59.2c290,44.2,540.4,82.4,819.8,89.3c28.8,0.7,57.6,1.1,86.6,1.1c226.2,0,456.5-21.8,709.1-67.4
				C3281.9,1062.8,3281.9,1061.9,3281.9,1061z"/>
		</g>
		<g class="st13">
			<path d="M3281.7,1040.2c-751.4,191.2-1154.4,106.2-1743.9-18.1c-91.9-19.4-187-39.4-288.8-59.5c-180.3-35.6-361.4-55-538-57.6
				c-141.4-2.1-280.2,6.5-412.8,25.5C162.1,949.9,60.5,976.6,1,994.9c0,0.9,0,1.8,0,2.7c59.3-18.2,161.1-45,297.6-64.6
				c208.1-29.8,541.8-48.5,949.9,32.1c101.8,20.1,196.9,40.2,288.8,59.5c308.1,65,574.2,121.1,867.1,128.8
				c23.2,0.6,46.5,0.9,69.8,0.9c131.2,0,263.5-9.8,402.2-29.7c127.9-18.4,261.7-45.3,405.4-81.8
				C3281.7,1041.9,3281.7,1041,3281.7,1040.2z"/>
		</g>
		<g class="st14">
			<path d="M3281.4,1017.3c-814.2,263.4-1201.9,157.4-1819.8-11.4c-70.9-19.4-144.2-39.4-221.6-59.8
				c-179.5-47.8-358.6-74.3-532.5-78.7c-139.1-3.5-275.1,6.9-404.3,31.2C159.2,925.5,55.7,963.9,1,987.4c0,0.9,0,1.9,0,2.8
				c54.3-23.4,158.1-62,302.9-89.2c202.7-38,529.6-60.6,935.5,47.5c77.4,20.4,150.7,40.4,221.6,59.8
				c328.9,89.9,588.7,160.9,887.5,169.2c19.1,0.5,38.3,0.8,57.5,0.8c262.8,0,540-50,875.5-158.4
				C3281.5,1019.1,3281.4,1018.2,3281.4,1017.3z"/>
		</g>
		<g>
			<path d="M3281.2,992.7c-870.3,338.5-1237.2,213.5-1875-3.8c-56.2-19.2-114.3-39-175.1-59.2c-178.7-59.6-356-92.9-527-99
				c-136.9-4.9-270,7.4-395.8,36.7c-154.5,36-260,89.1-307.3,116.3c0,1,0,2,0,3c46.5-26.8,152.3-80.5,308-116.8
				c197.3-45.9,517.3-72.4,921.3,62.3c60.8,20.2,118.9,40.1,175.1,59.2c332.6,113.3,595.4,202.9,896.8,211.6
				c15.9,0.5,31.8,0.7,47.8,0.7c269.5,0,563.4-65.5,931.1-208.2C3281.2,994.5,3281.2,993.6,3281.2,992.7z"/>
		</g>
		<g>
			<path d="M3280.8,928.4c-895.4,351.9-1263.4,229.9-2024.4-22.3C1069,844,883.6,809.6,705.3,803.6c-142.7-4.8-281.2,8.6-411.7,39.8
				C156.9,876.1,57.6,921.8,1,952.3c0,1,0,1.9,0,2.9c56.1-30.5,155.6-76.5,293.1-109.3c204.7-48.9,537.7-77.8,961.5,62.7
				c209.9,69.6,383.5,126.1,546.5,167.4c178.1,45.1,329.6,68,477,72.1c15.8,0.4,31.6,0.7,47.5,0.7c276.4,0,570.6-66.8,954.2-217.5
				C3280.8,930.3,3280.8,929.4,3280.8,928.4z"/>
		</g>
		<g>
			<path d="M3280.4,864.2c-804,320.5-1190.6,284.8-1998.8,18.4c-196-64.6-389.6-100.3-575.2-106.1c-148.5-4.6-292.4,9.8-427.6,42.9
				C155.4,849.6,61.7,890.1,1.1,921.3c0,1,0,1.9,0,2.9c60.4-31.2,154.3-71.9,278.3-102.3c212.1-51.9,558-83.1,1001.4,63.1
				c396.5,130.8,707.4,212.4,1016.4,212.4c11.3,0,22.7-0.1,34.1-0.3c273.3-5.3,555.2-73,949.1-230.1
				C3280.4,866.1,3280.4,865.1,3280.4,864.2z"/>
		</g>
		<g>
			<path d="M3280.2,800.1c-740.8,301.5-1122.5,338.1-1973.2,59c-204.7-67.2-406.3-104-599.3-109.6c-154.4-4.5-303.6,11-443.5,46
				c-112.4,28.1-200.8,64.5-263,95.2c0,1,0,1.9,0,2.8c62-30.8,150.6-67.3,263.6-95.6c219.5-54.9,578.4-88.4,1041.4,63.6
				c399.4,131.1,686.7,188.8,953,188.8c41.9,0,83.2-1.4,124.4-4.2c285.2-19.4,561.2-106.8,896.6-243.2
				C3280.2,801.9,3280.2,801,3280.2,800.1z"/>
		</g>
		<g>
			<path d="M3280,735.8c-669.7,278-1072.3,385.7-1947.8,99.7c-213.4-69.7-423.1-107.8-623.4-113.1c-160.2-4.3-314.8,12.2-459.4,49.1
				C146.5,797.7,63.3,830.6,1.1,860.2c0,0.9,0,1.9,0,2.8c62.2-29.7,145.6-62.8,249-89.1c226.9-57.8,598.6-93.6,1081.2,64
				c230.8,75.4,430.8,124.2,611.5,149.1c97.6,13.5,191.3,20.2,282.8,20.2c71.1,0,140.9-4.1,210.1-12.2
				c272.6-32,529.3-125.7,844.3-256.5C3280,737.6,3280,736.7,3280,735.8z"/>
		</g>
		<g>
			<path d="M3279.9,671.6c-6.3,2.7-12.6,5.4-18.9,8.1c-579.6,247.7-998.3,426.7-1903.5,132.2C1135.4,739.7,917.5,700.5,710,695.3
				c-166.1-4.1-326,13.4-475.3,52.2c-94.2,24.5-172.4,54.4-233.5,82.5c0,0.9,0,1.9,0,2.8c61.1-28.2,139.5-58.3,234.1-82.8
				c234.3-60.8,619-99,1121.4,64.4c220.5,71.8,415.9,117.2,597.3,139c82.8,9.9,162.7,14.9,241,14.9c79.4,0,157-5.1,233.9-15.3
				c289.7-38.5,541.5-146.2,833.2-270.9c5.9-2.5,11.9-5.1,17.9-7.7C3279.9,673.5,3279.9,672.5,3279.9,671.6z"/>
		</g>
		<g>
			<path d="M3279.8,607.5c-42.4,18.8-84,37.6-124.9,56.1c-482.7,218.7-899.6,407.6-1772.3,124.8C1152,713.6,926,673.2,711.1,668.2
				c-171.9-4-337.2,14.6-491.2,55.2c-86.3,22.8-159.4,50-218.8,76.4c0,0.9,0,1.9,0,2.8c59.4-26.5,132.7-53.9,219.4-76.8
				c241.7-63.8,639.4-104.3,1161.3,64.9c294.2,95.4,550.6,141.9,788.6,141.9c84.8,0,167.3-5.9,248.3-17.6
				c275.1-39.8,499.6-141.5,737.2-249.2c40.5-18.3,81.8-37,123.8-55.7C3279.8,609.3,3279.8,608.4,3279.8,607.5z"/>
		</g>
		<g>
			<path d="M3279.8,543.3c-55.3,25.6-110.2,52.9-167.3,81.3c-414.1,205.8-842.4,418.7-1704.6,140.2
				c-239.4-77.3-473.5-118.9-695.7-123.7c-177.8-3.8-348.4,15.8-507.1,58.3c-78.9,21.2-147.1,46-204.1,70.5c0,0.9,0,1.9,0,2.8
				c57.1-24.7,125.5-49.6,204.9-70.9c249.1-66.7,659.6-109.5,1201.2,65.4c273.4,88.3,521.3,132.1,750.7,132.1
				c94.4,0,185.8-7.4,274.4-22.2c268.1-44.8,478.2-149.2,681.4-250.2c56.6-28.2,111.2-55.2,166.1-80.7
				C3279.8,545.2,3279.8,544.3,3279.8,543.3z"/>
		</g>
		<g>
			<path d="M3279.8,479.4c-56.2,27.7-113.4,59.6-172.9,92.7c-358.8,199.9-805.3,448.6-1673.6,169.1
				C1185.2,661.4,943,618.6,713.5,614.1c-183.6-3.7-359.6,17-523,61.4c-72,19.6-135.2,42.1-189.4,64.8c0,0.9,0,1.8,0,2.8
				c54.4-22.8,117.8-45.4,190.2-65.1c256.5-69.7,680-114.8,1241.2,65.8c386.4,124.4,723.3,155.4,1030.1,94.8
				c265.7-52.5,467.5-164.9,645.5-264.1c59.1-32.9,115.9-64.6,171.7-92.1C3279.8,481.3,3279.8,480.4,3279.8,479.4z"/>
		</g>
		<g>
			<path d="M3279.8,415.6c-48.3,26-99.4,58.4-155.9,94.2c-309.5,196.3-777.2,492.9-1665.4,207.9c-256.8-82.4-507-126.4-743.8-130.8
				c-189.5-3.5-370.8,18.2-538.9,64.5c-65.3,18-123.6,38.4-174.6,59.1c0,0.9,0,1.8,0,2.8c51.2-20.9,109.8-41.4,175.5-59.5
				c263.8-72.6,700.3-120.1,1281.1,66.2c393.1,126.1,736.1,151.8,1048.4,78.3c266.1-62.6,461.9-186.7,619.1-286.4
				c56-35.5,106.7-67.7,154.6-93.5C3279.8,417.6,3279.8,416.6,3279.8,415.6z"/>
		</g>
		<g>
			<path d="M3279.9,352.3c-36.4,22.2-76.9,51.9-124.1,86.4c-280.9,205.7-751.1,550.1-1672.1,255.4
				C1218.3,609.3,960,564.1,715.9,559.9c-195.3-3.4-382,19.4-554.8,67.6c-59,16.5-112.3,34.8-159.9,53.6c0,0.9,0,1.8,0,2.8
				c47.8-18.9,101.4-37.4,160.8-53.9c271.2-75.6,720.6-125.4,1321.1,66.7c215.4,68.9,421.2,107,611.4,113.2
				c163.5,5.3,320.6-12.8,467.1-53.9c268.5-75.3,457.7-213.9,595.9-315.1c46.5-34,86.6-63.4,122.5-85.5
				C3279.9,354.3,3279.9,353.3,3279.9,352.3z"/>
		</g>
		<g>
			<path d="M3280.1,290c-23.4,17.4-50.7,41-81.9,67.9c-233.7,201.9-720,621.9-1689.1,312.7c-274.1-87.5-540.6-133.8-792-137.8
				c-201.1-3.2-393.2,20.6-570.7,70.7C93.4,618.4,45,634.8,1,651.7c0,0.9,0,1.8,0,2.8C45.2,637.5,93.8,621,147,606
				c278.7-78.6,741-130.8,1361.2,67.1c970.5,309.6,1457.5-111,1691.6-313.2c30.5-26.3,57.2-49.4,80.2-66.7
				C3280.1,292.1,3280.1,291,3280.1,290z"/>
		</g>
		<g>
			<path d="M3280.3,229.9c-9.3,9.4-20.1,20.9-32.6,34.2c-183.6,195.4-671.2,714.6-1713.4,383c-282.8-90-557.3-137.5-816.1-141.3
				c-207-3-404.4,21.8-586.6,73.8c-47,13.4-90.5,28-130.6,43c0,0.9,0,1.8,0,2.7c40.3-15.2,84.1-29.8,131.4-43.3
				c286-81.5,761.3-136,1401.1,67.6c445.9,141.9,844.1,142.9,1183.5,2.9c276.6-114,443.1-291.3,532.6-386.6
				c11.7-12.4,21.9-23.3,30.7-32.3C3280.3,232.3,3280.3,231.1,3280.3,229.9z"/>
		</g>
		<g>
			<path d="M3280.6,177c-45.4,68.4-166,227.7-376.4,356.7c-253.3,155.3-692.2,297-1344.7,89.9C1268.1,531,985.4,482.3,719.4,478.7
				c-212.8-2.8-415.6,23-602.5,76.9C75.6,567.4,37,580.1,0.9,593.3c0,0.9,0,1.8,0,2.7C37.2,582.8,76,570,117.6,558
				c293.5-84.5,781.7-141.4,1441.2,68c288.5,91.6,559.7,123.2,806.2,94.2c197.2-23.3,379.1-85.3,540.6-184.3
				c207.4-127.2,327.8-283.9,375-354.2C3280.5,180.1,3280.5,178.5,3280.6,177z"/>
		</g>
	</g>
	
		<linearGradient id="SVGID_1_" gradientUnits="userSpaceOnUse" x1="275.3741" y1="2003.1523" x2="1368.8846" y2="2003.1523" gradientTransform="matrix(1 0 0 -1 0 1287.4646)">
		<stop  offset="0" style="stop-color:#4071C6;stop-opacity:0"/>
		<stop  offset="0.4501" style="stop-color:#2D397D;stop-opacity:0.4501"/>
		<stop  offset="0.8205" style="stop-color:#1E1048;stop-opacity:0.8205"/>
		<stop  offset="1" style="stop-color:#190033"/>
	</linearGradient>
	<path class="st15" d="M645.5-939.1c0,0-121.7-28.7-348.7-2.6c-0.1,28.3-0.1,56.6-0.2,84.9c97.4-38.5,519.8-158,1072.2,378.1
		C1368.9-478.7,981.6-878,645.5-939.1z"/>
	
		<linearGradient id="SVGID_00000132808747843286343780000009495162629917423037_" gradientUnits="userSpaceOnUse" x1="2866.4812" y1="-1208.6796" x2="3966.2571" y2="-1208.6796" gradientTransform="matrix(-0.7607 0.6491 0.6491 0.7607 4355.8564 -3276.9548)">
		<stop  offset="0" style="stop-color:#4071C6;stop-opacity:0"/>
		<stop  offset="0.4501" style="stop-color:#2D397D;stop-opacity:0.4501"/>
		<stop  offset="0.8205" style="stop-color:#1E1048;stop-opacity:0.8205"/>
		<stop  offset="1" style="stop-color:#190033"/>
	</linearGradient>
	<path style="display:none;fill:url(#SVGID_00000132808747843286343780000009495162629917423037_);" d="M1263-1975.6
		c-159.8,110-447.2,189.9-872,162.6c0,0,576.8,71.9,872.1-99.8c0,0,34.7-17.8,92.3-62.6C1324.7-1975.4,1293.9-1975.5,1263-1975.6z"
		/>
	<path class="st17" d="M1338.8-821c-525.3-343.2-944-237.2-1041.8-204.8c-0.1,46.2-0.2,92.4-0.3,138.6
		c94.4-35.7,494.1-139.7,1042.1,381C1970.1,93.6,3062.3-369,3062.3-369v-795.9C3020.2-664.5,2084.9-333.6,1338.8-821z"/>
	
		<linearGradient id="SVGID_00000090988418431680673950000001521346596909920662_" gradientUnits="userSpaceOnUse" x1="3199.8669" y1="1972.1439" x2="5987.0527" y2="1972.1439" gradientTransform="matrix(-1 0 0 -1 6262.147 1287.4646)">
		<stop  offset="0" style="stop-color:#171C49"/>
		<stop  offset="1" style="stop-color:#171C49;stop-opacity:0"/>
	</linearGradient>
	<path style="display:none;fill:url(#SVGID_00000090988418431680673950000001521346596909920662_);" d="M1338.8-821
		c-525.3-343.2-944-237.2-1041.8-204.8c-0.1,46.2-0.2,92.4-0.3,138.6c94.4-35.7,494.1-139.7,1042.1,381
		C1970.1,93.6,3062.3-369,3062.3-369v-801.6C3020.2-670.3,2084.9-333.6,1338.8-821z"/>
	<path class="st17" d="M1357.7-1975.6c-11.6,5.8-23.3,11.7-35.1,17.8c-359.4,187.4-725.1,185.7-1026.1,98.7
		c0.3,135-2.1,112.1-2,247.1c318.6,52.8,753.9,0.9,1009.7-115.8c183.2-83.6,547.8-234.5,732.2-247.7"/>
	<path class="st19" d="M3062.3-786.3c0,0-797.7,672-1714.2-30.6c0,0,530,370.2,1130.3,183.3c191.1-59.5,531.1-197.1,583.9-531.2
		L3062.3-786.3L3062.3-786.3z"/>
	
		<linearGradient id="SVGID_00000170275993619788198410000006985216200471300007_" gradientUnits="userSpaceOnUse" x1="1348.13" y1="2121.022" x2="3062.29" y2="2121.022" gradientTransform="matrix(1 0 0 -1 0 1287.4646)">
		<stop  offset="0" style="stop-color:#190033"/>
		<stop  offset="0.1272" style="stop-color:#1B063A;stop-opacity:0.8728"/>
		<stop  offset="0.3155" style="stop-color:#20154E;stop-opacity:0.6845"/>
		<stop  offset="0.5416" style="stop-color:#292E6F;stop-opacity:0.4584"/>
		<stop  offset="0.795" style="stop-color:#35519C;stop-opacity:0.205"/>
		<stop  offset="1" style="stop-color:#4071C6;stop-opacity:0"/>
	</linearGradient>
	<path style="display:none;fill:url(#SVGID_00000170275993619788198410000006985216200471300007_);" d="M3062.3-786.3
		c0,0-797.7,672-1714.2-30.6c351,206.2,732.4,300.1,1116.7,187.3c194.1-57,543.8-190.9,597.5-541V-786.3z"/>
</g>
<g id="button_1_" class="st0">
	
		<image style="display:inline;overflow:visible;opacity:0.3;enable-background:new    ;" width="542" height="24" id="sombra_2_" xlink:href="509C1012.png"  transform="matrix(1 0 0 1 1546.7383 27.5106)">
	</image>
	
		<linearGradient id="caixa_00000091005103012216040620000007743065179640291990_" gradientUnits="userSpaceOnUse" x1="1415.7283" y1="1298.2946" x2="2303.2368" y2="1298.2946" gradientTransform="matrix(1 0 0 -1 0 1287.4646)">
		<stop  offset="0" style="stop-color:#4CB8FF"/>
		<stop  offset="1" style="stop-color:#CC0088"/>
	</linearGradient>
	<path id="caixa_1_" style="display:inline;fill:url(#caixa_00000091005103012216040620000007743065179640291990_);" d="
		M2055.6,42.5h-475.3c-16.8,0-30.4-13.6-30.4-30.4v-45.9c0-16.8,13.6-30.4,30.4-30.4h475.3c16.8,0,30.4,13.6,30.4,30.4v45.9
		C2086,28.9,2072.4,42.5,2055.6,42.5z"/>
	<text transform="matrix(1 0 0 1 1630.5249 3.2753)" class="st22 st23 st24">FAÇA O SEU PEDIDO!</text>
</g>
<g id="edit_-_venda" class="st0">
	<circle id="elipse" class="st25" cx="1306.6" cy="-304.6" r="211.7"/>
	
		<radialGradient id="sombra_00000110429720485598899980000003934501694077559989_" cx="1505.0226" cy="1482.7272" r="145.275" gradientTransform="matrix(1.1959 0 0 -1.1586 -524.4016 1441.7726)" gradientUnits="userSpaceOnUse">
		<stop  offset="0" style="stop-color:#000000"/>
		<stop  offset="0.1102" style="stop-color:#343434"/>
		<stop  offset="0.239" style="stop-color:#696969"/>
		<stop  offset="0.3696" style="stop-color:#979797"/>
		<stop  offset="0.4992" style="stop-color:#BCBCBC"/>
		<stop  offset="0.6276" style="stop-color:#DADADA"/>
		<stop  offset="0.7546" style="stop-color:#EEEEEE"/>
		<stop  offset="0.8795" style="stop-color:#FBFBFB"/>
		<stop  offset="1" style="stop-color:#FFFFFF"/>
	</radialGradient>
	
		<path id="sombra_1_" style="display:inline;opacity:0.9;fill:url(#sombra_00000110429720485598899980000003934501694077559989_);enable-background:new    ;" d="
		M1158.7-107.8c-31.4,0-57-24.8-57-55.2v-226.2c0-30.4,25.6-55.2,57-55.2h233.5c31.4,0,57,24.8,57,55.2V-163
		c0,30.4-25.6,55.2-57,55.2H1158.7z"/>
	
		<image style="display:inline;overflow:visible;enable-background:new    ;" width="600" height="517" xlink:href="509C1013.png"  transform="matrix(0.5215 -3.380000e-02 3.380000e-02 0.5215 1129.4802 -440.4722)">
	</image>
	
		<linearGradient id="flexa_00000167365456429580641740000009527374337623605426_" gradientUnits="userSpaceOnUse" x1="1443.0304" y1="1584.1228" x2="1708.4381" y2="1584.1228" gradientTransform="matrix(0.9891 0.1472 0.1472 -0.9891 -157.4409 815.6733)">
		<stop  offset="0" style="stop-color:#FF007E"/>
		<stop  offset="1" style="stop-color:#842BD0"/>
	</linearGradient>
	<path id="flexa" style="display:inline;fill:url(#flexa_00000167365456429580641740000009527374337623605426_);" d="M1793.2-691.7
		c-1.7-7.1-9.1-11.4-16.4-9.6c-7.3,1.8-11.8,8.9-10.1,16c1.2,4.9,5.1,8.5,9.8,9.6c-34.6,164.1-175.6,260.4-253.3,306.2l-10.7-17.5
		c-1-1.6-2.8-2.6-4.7-2.7c-2,0-3.8,0.9-4.9,2.5l-27.9,40.7c-1.2,1.7-1.3,3.8-0.3,5.6c0.9,1.8,2.8,2.9,4.9,2.9l53.4,1
		c0.4,0,0.7,0,1.1-0.1c1.6-0.3,3.1-1.2,4-2.7c1.1-1.7,1.1-3.9,0-5.6l-10.8-17.6c206.3-106.4,248.8-284.3,254.3-312.5
		c0.5-0.1,1-0.2,1.6-0.3C1790.4-677.4,1794.9-684.6,1793.2-691.7z M1487.6-347.5l19.7-28.8l18.1,29.5L1487.6-347.5z"/>
</g>
<g id="logo" class="st0">
	<path id="rt_1_" class="st22" d="M1343.2-816.6v-26l6-0.1c3.5,0,6.4-2.6,6.4-5.8v-1.4l-12.4,0.1v-14.3h-2.7c-3.4,0-6.1,2.5-6.1,5.5
		v8.8l-5.1,0c-2.5,0-6.6,0-8.8,0.8c-2,0.7-4.2,1.5-5.7,3.4v-0.2c0-2.9-2.4-4.1-5.5-4.1h-2.8v44.3h3.9c2.7,0,4.9-2,4.9-4.5v-20.2
		c0-4.1,0.7-7.1,2.6-8.9c2.1-2,6-3.2,11.9-3.5h4.7c0,0,0,13.7,0,21.6c0,1.5,0,3.3,0,5.5c-0.1,10.9,8.6,9.8,16.2,9.8
		c3.4,0,5.3-2,5.3-5.4c0,0,0-0.1,0-1v-1.4C1346.6-812.8,1343.6-813.4,1343.2-816.6z"/>
	<path id="pe_1_" class="st22" d="M1304.7-827.1c0-3.1-0.3-5.8-0.9-8.2c-0.6-2.4-1.6-4.6-2.9-6.6c-2.2-3.2-5-5.8-8.4-7.6
		s-7.1-2.7-11-2.7c-3.3,0-6.4,0.6-9.2,1.8c-2.8,1.2-5.3,3-7.6,5.5c-2.1,2.2-3.7,4.7-4.8,7.4c-0.5,1.2-0.8,2.7-1.1,3.9
		c-0.2,1.3-0.4,3.2-0.4,3.5c-0.2,2.6-0.5,4.9-1.3,7l0,0c-0.8,2.1-2,3.9-3.8,5.7c-3.1,2.9-6.9,4.2-11.2,4.2c-4.1,0-7.7-1.5-10.7-4.6
		c-3-3.1-4.5-6.8-4.5-11.2c0-4.1,1.5-7.6,4.6-10.7s6.6-4.6,10.5-4.6c4.3,0,8.5,1.7,11.2,4.4c0.5,0.5,2.1,2.1,3.1,3.1
		c1.2-3.5,2.4-4.9,4-7.2c-0.2-0.2-0.5-0.5-0.7-0.7c-4.5-4.4-10.6-7.1-17.3-7.1c-2.9,0-5.6,0.5-8.2,1.6s-4.9,2.7-6.9,4.8l0,0
		c0-3-2.4-5.4-5.4-5.4h-2.8v58.5h2.6c3.1,0,5.5-2.5,5.5-5.5V-812c2.2,2.2,4.6,3.8,7.2,4.9c2.6,1.1,5.4,1.6,8.5,1.6
		c3.4,0,6.5-0.6,9.2-1.7c2.7-1.1,5.2-2.8,7.4-5.2c0.4-0.5,0.8-0.9,1.2-1.4l0,0c0.2-0.2,0.3-0.4,0.5-0.6c0,0,0.1-0.1,0.1-0.2
		c0.2-0.2,0.3-0.4,0.4-0.6c0,0,0,0,0,0l0,0c0.2-0.2,0.3-0.5,0.5-0.7c0.8,1.2,1.7,2.4,2.7,3.4c2.2,2.3,4.7,4,7.5,5.2
		c2.8,1.2,5.8,1.7,9.1,1.7c4.9,0,9.3-1.3,13-3.9c3.7-2.6,6.6-6.3,8.7-11.3l-4.3-0.1c-4,0.1-3.6,0.3-5.6,2c-0.8,0.6-3.7,2.9-4.5,3.4
		c-2.2,1.3-4.6,1.9-7.3,1.9c-3.7,0-7-1.2-9.7-3.4c-2.7-2.3-4.4-5.3-5.1-9h37.9L1304.7-827.1L1304.7-827.1z M1267.1-833
		c1-3.5,2.8-6.3,5.4-8.4c2.6-2,5.7-3.1,9.2-3.1c3.5,0,6.4,1,8.9,3c2.5,2,4.2,4.8,5.2,8.5H1267.1z"/>
	<path id="X_3_" class="st22" d="M1147.7-874l47.1,63.3c2.4,3.2,6.2,5.2,10.3,5.2h11.4l-47.5-64c-2.1-2.9-5.5-4.5-9.1-4.5
		L1147.7-874L1147.7-874z"/>
	<g id="color_4_" class="st28">
		<g id=":._4_">
			
				<linearGradient id="SVGID_00000168086023199255713480000015807406284376277650_" gradientUnits="userSpaceOnUse" x1="1216.8556" y1="2165.0769" x2="1157.1211" y2="2089.6494" gradientTransform="matrix(1 0 0 -1 0 1287.4646)">
				<stop  offset="0" style="stop-color:#0071BC"/>
				<stop  offset="0.5" style="stop-color:#0071BC"/>
				<stop  offset="1" style="stop-color:#4B93EE"/>
			</linearGradient>
			<polygon style="fill:url(#SVGID_00000168086023199255713480000015807406284376277650_);" points="1159.6,-803.1 1157.3,-804.8 
				1155.7,-802.5 1157.9,-800.9 			"/>
			
				<linearGradient id="SVGID_00000080189735555678486520000018361352406307272880_" gradientUnits="userSpaceOnUse" x1="1210.1943" y1="2170.3525" x2="1150.4598" y2="2094.9248" gradientTransform="matrix(1 0 0 -1 0 1287.4646)">
				<stop  offset="0" style="stop-color:#0071BC"/>
				<stop  offset="0.5" style="stop-color:#0071BC"/>
				<stop  offset="1" style="stop-color:#4B93EE"/>
			</linearGradient>
			<polygon style="fill:url(#SVGID_00000080189735555678486520000018361352406307272880_);" points="1152.8,-808.2 1150.5,-809.9 
				1148.8,-807.6 1151.1,-805.9 			"/>
			
				<linearGradient id="SVGID_00000119819073537621927570000003942752699074934180_" gradientUnits="userSpaceOnUse" x1="1219.0132" y1="2163.3684" x2="1159.2787" y2="2087.9409" gradientTransform="matrix(1 0 0 -1 0 1287.4646)">
				<stop  offset="0" style="stop-color:#0071BC"/>
				<stop  offset="0.5" style="stop-color:#0071BC"/>
				<stop  offset="1" style="stop-color:#4B93EE"/>
			</linearGradient>
			<polygon style="fill:url(#SVGID_00000119819073537621927570000003942752699074934180_);" points="1163.6,-803.7 1161.3,-805.4 
				1159.6,-803.1 1161.9,-801.4 			"/>
			
				<linearGradient id="SVGID_00000096767604139637495950000017844162808262779839_" gradientUnits="userSpaceOnUse" x1="1212.3486" y1="2168.646" x2="1152.6144" y2="2093.2188" gradientTransform="matrix(1 0 0 -1 0 1287.4646)">
				<stop  offset="0" style="stop-color:#0071BC"/>
				<stop  offset="0.5" style="stop-color:#0071BC"/>
				<stop  offset="1" style="stop-color:#4B93EE"/>
			</linearGradient>
			<polygon style="fill:url(#SVGID_00000096767604139637495950000017844162808262779839_);" points="1155.1,-806.5 1156.8,-808.8 
				1154.5,-810.5 1152.8,-808.2 			"/>
			
				<linearGradient id="SVGID_00000028296944847208973610000002061759314972238466_" gradientUnits="userSpaceOnUse" x1="1210.0593" y1="2170.459" x2="1150.325" y2="2095.0315" gradientTransform="matrix(1 0 0 -1 0 1287.4646)">
				<stop  offset="0" style="stop-color:#0071BC"/>
				<stop  offset="0.5" style="stop-color:#0071BC"/>
				<stop  offset="1" style="stop-color:#4B93EE"/>
			</linearGradient>
			<polygon style="fill:url(#SVGID_00000028296944847208973610000002061759314972238466_);" points="1152.2,-812.2 1154.5,-810.5 
				1156.2,-812.8 1153.9,-814.4 			"/>
			
				<linearGradient id="SVGID_00000075863066436750206340000002061593782711599807_" gradientUnits="userSpaceOnUse" x1="1212.2145" y1="2168.7522" x2="1152.4801" y2="2093.325" gradientTransform="matrix(1 0 0 -1 0 1287.4646)">
				<stop  offset="0" style="stop-color:#0071BC"/>
				<stop  offset="0.5" style="stop-color:#0071BC"/>
				<stop  offset="1" style="stop-color:#4B93EE"/>
			</linearGradient>
			<polygon style="fill:url(#SVGID_00000075863066436750206340000002061593782711599807_);" points="1157.9,-815 1160.2,-813.3 
				1158.5,-811.1 1156.2,-812.8 			"/>
		</g>
		<g id="X_6_">
			
				<linearGradient id="SVGID_00000084510754797829946070000003708747940624613282_" gradientUnits="userSpaceOnUse" x1="1210.3125" y1="2170.2585" x2="1150.578" y2="2094.8313" gradientTransform="matrix(1 0 0 -1 0 1287.4646)">
				<stop  offset="0" style="stop-color:#FF6A32"/>
				<stop  offset="0.5" style="stop-color:#FF007E"/>
				<stop  offset="1" style="stop-color:#842BD0"/>
			</linearGradient>
			<polygon style="fill:url(#SVGID_00000084510754797829946070000003708747940624613282_);" points="1203.9,-877 1206.2,-875.2 
				1207.9,-877.5 1205.6,-879.2 			"/>
			
				<linearGradient id="SVGID_00000165944785825609504120000004421371635115571637_" gradientUnits="userSpaceOnUse" x1="1216.9745" y1="2164.9829" x2="1157.24" y2="2089.5554" gradientTransform="matrix(1 0 0 -1 0 1287.4646)">
				<stop  offset="0" style="stop-color:#FF6A32"/>
				<stop  offset="0.5" style="stop-color:#FF007E"/>
				<stop  offset="1" style="stop-color:#842BD0"/>
			</linearGradient>
			<polygon style="fill:url(#SVGID_00000165944785825609504120000004421371635115571637_);" points="1210.8,-871.9 1213,-870.2 
				1214.7,-872.5 1212.4,-874.2 			"/>
			
				<linearGradient id="SVGID_00000038399687679438705430000000450506988719469503_" gradientUnits="userSpaceOnUse" x1="1208.1581" y1="2171.9648" x2="1148.4236" y2="2096.5374" gradientTransform="matrix(1 0 0 -1 0 1287.4646)">
				<stop  offset="0" style="stop-color:#FF6A32"/>
				<stop  offset="0.5" style="stop-color:#FF007E"/>
				<stop  offset="1" style="stop-color:#842BD0"/>
			</linearGradient>
			<polygon style="fill:url(#SVGID_00000038399687679438705430000000450506988719469503_);" points="1200,-876.4 1202.2,-874.7 
				1203.9,-877 1201.7,-878.6 			"/>
			
				<linearGradient id="SVGID_00000098194973612749520010000007864412017448951733_" gradientUnits="userSpaceOnUse" x1="1214.8225" y1="2166.687" x2="1155.0881" y2="2091.2595" gradientTransform="matrix(1 0 0 -1 0 1287.4646)">
				<stop  offset="0" style="stop-color:#FF6A32"/>
				<stop  offset="0.5" style="stop-color:#FF007E"/>
				<stop  offset="1" style="stop-color:#842BD0"/>
			</linearGradient>
			<polygon style="fill:url(#SVGID_00000098194973612749520010000007864412017448951733_);" points="1208.5,-873.6 1206.8,-871.3 
				1209.1,-869.6 1210.8,-871.9 			"/>
			
				<linearGradient id="SVGID_00000147911376619132976640000011937966545674636960_" gradientUnits="userSpaceOnUse" x1="1217.1086" y1="2164.8765" x2="1157.3743" y2="2089.449" gradientTransform="matrix(1 0 0 -1 0 1287.4646)">
				<stop  offset="0" style="stop-color:#FF6A32"/>
				<stop  offset="0.5" style="stop-color:#FF007E"/>
				<stop  offset="1" style="stop-color:#842BD0"/>
			</linearGradient>
			<polygon style="fill:url(#SVGID_00000147911376619132976640000011937966545674636960_);" points="1211.3,-867.9 1209.1,-869.6 
				1207.4,-867.3 1209.6,-865.6 			"/>
			
				<linearGradient id="SVGID_00000021102269847989725620000015422730507381357201_" gradientUnits="userSpaceOnUse" x1="1214.9574" y1="2166.5803" x2="1155.2229" y2="2091.1528" gradientTransform="matrix(1 0 0 -1 0 1287.4646)">
				<stop  offset="0" style="stop-color:#FF6A32"/>
				<stop  offset="0.5" style="stop-color:#FF007E"/>
				<stop  offset="1" style="stop-color:#842BD0"/>
			</linearGradient>
			<polygon style="fill:url(#SVGID_00000021102269847989725620000015422730507381357201_);" points="1205.7,-865 1203.4,-866.7 
				1205.1,-869 1207.4,-867.3 			"/>
			
				<linearGradient id="SVGID_00000065056023532636301650000015474212562990874759_" gradientUnits="userSpaceOnUse" x1="1213.5829" y1="2167.6687" x2="1153.8483" y2="2092.241" gradientTransform="matrix(1 0 0 -1 0 1287.4646)">
				<stop  offset="0" style="stop-color:#FFB000"/>
				<stop  offset="0.3" style="stop-color:#FF007E"/>
				<stop  offset="0.65" style="stop-color:#842BD0"/>
				<stop  offset="1" style="stop-color:#3FA9F5"/>
			</linearGradient>
			<polyline style="fill:url(#SVGID_00000065056023532636301650000015474212562990874759_);" points="1172.9,-840 1155.6,-816.7 
				1157.9,-815 1159.6,-817.3 1161.8,-815.6 1160.2,-813.3 1162.4,-811.6 1160.7,-809.4 1158.5,-811.1 1156.8,-808.8 1161.3,-805.4 
				1163,-807.7 1165.3,-806 1167,-808.3 1164.7,-810 1166.4,-812.2 1168.7,-810.5 1181.8,-828.2 1181.7,-828.2 1190.6,-840.1 
				1190.6,-840 1207.9,-863.4 1205.7,-865 1204,-862.8 1201.7,-864.5 1203.4,-866.7 1201.1,-868.4 1202.8,-870.7 1205.1,-869 
				1206.8,-871.3 1202.2,-874.7 1200.6,-872.4 1198.3,-874.1 1196.6,-871.8 1198.9,-870.1 1197.2,-867.8 1194.9,-869.5 
				1181.8,-851.9 			"/>
		</g>
	</g>
</g>
</svg>
