<?xml version="1.0" encoding="utf-8"?>
<!-- Generator: Adobe Illustrator 27.2.0, SVG Export Plug-In . SVG Version: 6.00 Build 0)  -->
<svg version="1.1" xmlns="http://www.w3.org/2000/svg" xmlns:xlink="http://www.w3.org/1999/xlink" x="0px" y="0px"
	 viewBox="0 0 2985.7 1409.4" style="enable-background:new 0 0 2985.7 1409.4;" xml:space="preserve">
<style type="text/css">
	.st0{display:none;}
	.st1{display:inline;}
	.st2{fill:#190033;}
	.st3{fill:#FFFFFF;}
	.st4{fill:url(#SVGID_1_);}
	.st5{fill:url(#SVGID_00000089552778959646445610000013287149242925500820_);}
	.st6{fill:url(#SVGID_00000183238729826758049690000003223833687025323695_);}
	.st7{fill:url(#SVGID_00000042698517466238079390000010971154779758261933_);}
	.st8{fill:url(#SVGID_00000176740319551739993200000015351012906322355087_);}
	.st9{fill:url(#SVGID_00000006668528671961268730000009405911434179679876_);}
	.st10{fill:url(#SVGID_00000069386388385394425560000009499855235947203723_);}
	.st11{fill:url(#SVGID_00000026844085324013826250000000567541446245810876_);}
	.st12{fill:url(#SVGID_00000073715990100023343430000001921422057183328430_);}
	.st13{fill:url(#SVGID_00000070805332045104836880000001388971226971754890_);}
	.st14{fill:url(#SVGID_00000102524695108340543570000008283851281273197240_);}
	.st15{fill:url(#SVGID_00000013882458885348973730000012159890113930168502_);}
	.st16{fill:url(#SVGID_00000108275864591468402520000004859527315172582795_);}
	.st17{fill:#141414;}
	.st18{fill:url(#SVGID_00000158738971237997669670000011337889309231231134_);}
	.st19{fill:url(#SVGID_00000177443771380893302870000007771268503787383466_);}
	.st20{fill:url(#SVGID_00000058567399930929677200000007488567486410502564_);}
	.st21{fill:url(#SVGID_00000046309956585988054550000013426872648223696806_);}
	.st22{fill:url(#SVGID_00000178911026297705130880000011045242216603987615_);}
	.st23{fill:url(#SVGID_00000000183637056277879690000003632912021356320914_);}
	.st24{fill:url(#SVGID_00000003107027453961861790000005725475046935147697_);}
	.st25{fill:url(#SVGID_00000109749465730342054240000008400463341156431788_);}
	.st26{fill:url(#SVGID_00000136387931597969030100000017880394812657707403_);}
	.st27{fill:url(#SVGID_00000111877429621922093320000012072984338928435092_);}
	.st28{fill:url(#SVGID_00000126324482692617541910000001215493055257803437_);}
	.st29{fill:url(#SVGID_00000162346304723821784760000000378216394995421853_);}
	.st30{fill:url(#SVGID_00000160887715571945411030000001045729070083181734_);}
	.st31{fill:#E56620;}
</style>
<g id="Camada_1" class="st0">
	<g id="background" class="st1">
		<rect id="_x31_90033" class="st2" width="2985.7" height="1417"/>
	</g>
	<g id="logo_2" class="st1">
		<g id="p_x26_b_cópia_2">
			<path id="rt_2_" class="st3" d="M2798.3,954.8l0-372.1l85.3-1.5c50.6,0,91.6-37.2,91.6-83v-20.6l-176.7,1.6V274.4h-37.9
				c-48.2,0-87.2,35.4-87.2,79v125.9l-73.3,0.2c-35.6,0.4-94.7,0-126.3,11.4c-28.6,10.4-64.9,19.5-85.6,47.5v-2.2
				c0-41-30.8-57-74.1-57h-39.9v633h55.5c38.8,0,70.3-28.5,70.3-63.7V760c0-58.3,9.1-107.4,35.2-132.2c29.8-28.4,87.1-41,170.9-45
				l67.7,0c0,0,0,195.8,0,308.9c-0.2,21.3-0.4,47-0.6,77.9c-1.3,155.2,122.1,140.6,231.1,140.6c48.6,0,76.2-27.9,76.2-77.6
				c0,0,0-1.2,0-14.5v-19.4C2846.9,1008.1,2803.3,1000.4,2798.3,954.8z"/>
			<path id="pe_2_" class="st3" d="M2248.4,804.9c0-44-4.5-83.2-13.4-117.5s-22.8-65.8-41.5-94.5c-31.6-46.3-71.6-82.4-120.1-108.3
				c-48.5-25.9-101-38.8-157.5-38.8c-47.5,0-91.3,8.7-131.5,26.1c-40.1,17.4-76.2,43.4-108.1,77.8c-30,31.8-52.7,67-68.1,105.7
				c-6.6,16.7-12.2,38.2-15.6,56c-3.6,18.9-5.6,46.3-5.8,49.7c-2.2,36.7-7.3,69.4-18.5,99.4c0,0,0,0,0,0c-11,29.5-28,56.2-54.2,81.4
				c-43.7,41.9-99.2,60.5-159.6,60.5c-59.2,0-110.1-22-152.8-66s-64-97.3-64-159.7c0-58.2,21.7-109,65.2-152.5
				c43.4-43.5,93.6-65.2,150.4-65.2c61.9,0,121.1,23.6,160.8,63.3c7,7,29.8,29.8,44.1,44.1c17.6-50.7,33.8-69.9,57.3-103.6
				c-2.2-2.3-6.8-7.5-9.6-10.4c-63.9-63.2-150.9-101.4-247.9-101.4c-41.3,0-80.1,7.8-116.6,23.3c-36.4,15.5-69.4,38.2-99,68.1l0,0
				c0-42.8-34.7-77.5-77.5-77.5h-39.3v880.5h36.8c43.5,0,78.8-35.3,78.8-78.8v-246.2c31.2,31,65.3,54.3,102.5,69.8
				c37.2,15.5,77.6,23.3,121.2,23.3c49.1,0,92.8-7.9,131.2-23.8c38.4-15.9,73.7-40.5,106-73.8c6.2-6.5,12.2-13.1,17.8-20l0,0
				c2.4-2.9,4.7-5.9,7-8.9c0.5-0.7,1.1-1.4,1.6-2.1c2.2-2.9,4.3-5.8,6.3-8.7c0.1-0.2,0.2-0.3,0.4-0.5c0,0,0,0,0,0
				c2.3-3.2,4.5-6.5,6.7-9.8c11.5,17.5,24.5,33.7,39.1,48.8c31.9,32.9,67.6,57.6,106.9,74.1c39.3,16.5,82.8,24.7,130.3,24.7
				c70.5,0,132.3-18.6,185.5-55.7c53.2-37.1,94.6-90.8,124.2-160.8l-61.2-1.1c-57.4,1.1-50.7,4.4-79.4,28.7
				c-10.9,9.2-52.3,41.6-64.8,48.8c-31.4,18-66.1,27-104.3,27c-53.4,0-99.4-16.4-138.2-49.1c-38.8-32.7-63-75.5-72.7-128.4h541
				L2248.4,804.9L2248.4,804.9z M1710.8,720.5c14-50.5,39.6-90.5,76.8-119.8c37.2-29.3,81.1-43.9,131.8-43.9
				c49.5,0,91.9,14.3,127.4,42.8c35.4,28.5,60.4,68.8,74.8,120.9H1710.8z"/>
			<path id="X_5_" class="st3" d="M5.3,135.1l672.2,905c34.5,46.5,89,73.9,146.9,73.9h162.9L308.5,200.2
				c-30.4-40.9-78.4-65-129.3-65L5.3,135.1L5.3,135.1z"/>
		</g>
		<g id="color_1_">
			<g id=":._1_">
				
					<linearGradient id="SVGID_1_" gradientUnits="userSpaceOnUse" x1="992.9191" y1="1324.2555" x2="139.5257" y2="246.6637" gradientTransform="matrix(1 0 0 -1 0 1407.4646)">
					<stop  offset="0" style="stop-color:#0071BC"/>
					<stop  offset="0.5" style="stop-color:#0071BC"/>
					<stop  offset="1" style="stop-color:#4B93EE"/>
				</linearGradient>
				<polygon class="st4" points="175.3,1147.3 142.8,1123.1 118.6,1155.6 151.1,1179.8 				"/>
				
					<linearGradient id="SVGID_00000100364922197719097080000014496647297912097429_" gradientUnits="userSpaceOnUse" x1="897.7392" y1="1399.6366" x2="44.344" y2="322.0432" gradientTransform="matrix(1 0 0 -1 0 1407.4646)">
					<stop  offset="0" style="stop-color:#0071BC"/>
					<stop  offset="0.5" style="stop-color:#0071BC"/>
					<stop  offset="1" style="stop-color:#4B93EE"/>
				</linearGradient>
				<polygon style="fill:url(#SVGID_00000100364922197719097080000014496647297912097429_);" points="77.8,1074.8 45.3,1050.6 
					21.1,1083.1 53.6,1107.3 				"/>
				
					<linearGradient id="SVGID_00000140700987489889235590000015454071789564108433_" gradientUnits="userSpaceOnUse" x1="1023.6933" y1="1299.8859" x2="170.2995" y2="222.2942" gradientTransform="matrix(1 0 0 -1 0 1407.4646)">
					<stop  offset="0" style="stop-color:#0071BC"/>
					<stop  offset="0.5" style="stop-color:#0071BC"/>
					<stop  offset="1" style="stop-color:#4B93EE"/>
				</linearGradient>
				<polygon style="fill:url(#SVGID_00000140700987489889235590000015454071789564108433_);" points="231.9,1138.9 199.4,1114.8 
					175.3,1147.3 207.8,1171.4 				"/>
				
					<linearGradient id="SVGID_00000027604678588061612590000017785222235782453922_" gradientUnits="userSpaceOnUse" x1="928.5101" y1="1375.2635" x2="75.1179" y2="297.6739" gradientTransform="matrix(1 0 0 -1 0 1407.4646)">
					<stop  offset="0" style="stop-color:#0071BC"/>
					<stop  offset="0.5" style="stop-color:#0071BC"/>
					<stop  offset="1" style="stop-color:#4B93EE"/>
				</linearGradient>
				<polygon style="fill:url(#SVGID_00000027604678588061612590000017785222235782453922_);" points="110.3,1099 134.5,1066.5 
					102,1042.3 77.8,1074.8 				"/>
				
					<linearGradient id="SVGID_00000052069694560281235460000008503728012273823416_" gradientUnits="userSpaceOnUse" x1="895.8087" y1="1401.1575" x2="42.4165" y2="323.5673" gradientTransform="matrix(1 0 0 -1 0 1407.4646)">
					<stop  offset="0" style="stop-color:#0071BC"/>
					<stop  offset="0.5" style="stop-color:#0071BC"/>
					<stop  offset="1" style="stop-color:#4B93EE"/>
				</linearGradient>
				<polygon style="fill:url(#SVGID_00000052069694560281235460000008503728012273823416_);" points="69.5,1018.1 102,1042.3 
					126.1,1009.8 93.6,985.7 				"/>
				
					<linearGradient id="SVGID_00000173849844762905560840000002060723185905491089_" gradientUnits="userSpaceOnUse" x1="926.5779" y1="1376.792" x2="73.1856" y2="299.2022" gradientTransform="matrix(1 0 0 -1 0 1407.4646)">
					<stop  offset="0" style="stop-color:#0071BC"/>
					<stop  offset="0.5" style="stop-color:#0071BC"/>
					<stop  offset="1" style="stop-color:#4B93EE"/>
				</linearGradient>
				<polygon style="fill:url(#SVGID_00000173849844762905560840000002060723185905491089_);" points="150.3,977.3 182.8,1001.5 
					158.6,1034 126.1,1009.8 				"/>
			</g>
			<g id="X_1_">
				
					<linearGradient id="SVGID_00000006683408066579370130000012950081388621027987_" gradientUnits="userSpaceOnUse" x1="899.4224" y1="1398.3004" x2="46.0287" y2="320.7089" gradientTransform="matrix(1 0 0 -1 0 1407.4646)">
					<stop  offset="0" style="stop-color:#FF6A32"/>
					<stop  offset="0.5" style="stop-color:#FF007E"/>
					<stop  offset="1" style="stop-color:#842BD0"/>
				</linearGradient>
				<polygon style="fill:url(#SVGID_00000006683408066579370130000012950081388621027987_);" points="808.2,92.7 840.7,116.9 
					864.9,84.4 832.4,60.2 				"/>
				
					<linearGradient id="SVGID_00000071518585935199062360000000203612245384164490_" gradientUnits="userSpaceOnUse" x1="994.6046" y1="1322.9215" x2="141.2108" y2="245.33" gradientTransform="matrix(1 0 0 -1 0 1407.4646)">
					<stop  offset="0" style="stop-color:#FF6A32"/>
					<stop  offset="0.5" style="stop-color:#FF007E"/>
					<stop  offset="1" style="stop-color:#842BD0"/>
				</linearGradient>
				<polygon style="fill:url(#SVGID_00000071518585935199062360000000203612245384164490_);" points="905.7,165.2 938.2,189.4 
					962.4,156.9 929.9,132.7 				"/>
				
					<linearGradient id="SVGID_00000057835072865625033980000011912717338827537846_" gradientUnits="userSpaceOnUse" x1="868.6495" y1="1422.6711" x2="15.256" y2="345.0798" gradientTransform="matrix(1 0 0 -1 0 1407.4646)">
					<stop  offset="0" style="stop-color:#FF6A32"/>
					<stop  offset="0.5" style="stop-color:#FF007E"/>
					<stop  offset="1" style="stop-color:#842BD0"/>
				</linearGradient>
				<polygon style="fill:url(#SVGID_00000057835072865625033980000011912717338827537846_);" points="751.6,101 784.1,125.2 
					808.2,92.7 775.7,68.5 				"/>
				
					<linearGradient id="SVGID_00000182490010425559883300000006162069177081206686_" gradientUnits="userSpaceOnUse" x1="963.8316" y1="1347.292" x2="110.4378" y2="269.7004" gradientTransform="matrix(1 0 0 -1 0 1407.4646)">
					<stop  offset="0" style="stop-color:#FF6A32"/>
					<stop  offset="0.5" style="stop-color:#FF007E"/>
					<stop  offset="1" style="stop-color:#842BD0"/>
				</linearGradient>
				<polygon style="fill:url(#SVGID_00000182490010425559883300000006162069177081206686_);" points="873.2,141 849,173.5 
					881.5,197.7 905.7,165.2 				"/>
				
					<linearGradient id="SVGID_00000118386402319749965240000013430254709758881687_" gradientUnits="userSpaceOnUse" x1="996.5306" y1="1321.3955" x2="143.1381" y2="243.8055" gradientTransform="matrix(1 0 0 -1 0 1407.4646)">
					<stop  offset="0" style="stop-color:#FF6A32"/>
					<stop  offset="0.5" style="stop-color:#FF007E"/>
					<stop  offset="1" style="stop-color:#842BD0"/>
				</linearGradient>
				<polygon style="fill:url(#SVGID_00000118386402319749965240000013430254709758881687_);" points="914,221.9 881.5,197.7 
					857.4,230.2 889.9,254.3 				"/>
				
					<linearGradient id="SVGID_00000036969696087688035880000001825917185987547286_" gradientUnits="userSpaceOnUse" x1="965.7659" y1="1345.7599" x2="112.3724" y2="268.1687" gradientTransform="matrix(1 0 0 -1 0 1407.4646)">
					<stop  offset="0" style="stop-color:#FF6A32"/>
					<stop  offset="0.5" style="stop-color:#FF007E"/>
					<stop  offset="1" style="stop-color:#842BD0"/>
				</linearGradient>
				<polygon style="fill:url(#SVGID_00000036969696087688035880000001825917185987547286_);" points="833.2,262.7 800.7,238.5 
					824.9,206 857.4,230.2 				"/>
				
					<linearGradient id="SVGID_00000139986939854690611560000000598088904634366654_" gradientUnits="userSpaceOnUse" x1="946.1744" y1="1361.276" x2="92.7786" y2="283.6818" gradientTransform="matrix(1 0 0 -1 0 1407.4646)">
					<stop  offset="0" style="stop-color:#FFB000"/>
					<stop  offset="0.3" style="stop-color:#FF007E"/>
					<stop  offset="0.65" style="stop-color:#842BD0"/>
					<stop  offset="1" style="stop-color:#3FA9F5"/>
				</linearGradient>
				<polyline style="fill:url(#SVGID_00000139986939854690611560000000598088904634366654_);" points="365.6,620 117.8,953.1 
					150.3,977.3 174.4,944.8 206.9,969 182.8,1001.5 215.2,1025.7 191.1,1058.1 158.6,1034 134.4,1066.5 199.4,1114.8 223.6,1082.3 
					256.1,1106.5 280.2,1074 247.7,1049.8 271.9,1017.3 304.4,1041.5 491.8,789.6 490.8,789.8 618,619.1 617.9,620 865.7,286.8 
					833.2,262.7 809,295.1 776.6,271 800.7,238.5 768.2,214.3 792.4,181.9 824.9,206 849.1,173.5 784.1,125.2 759.9,157.7 
					727.4,133.5 703.3,166 735.8,190.2 711.6,222.6 679.1,198.5 491.7,450.3 				"/>
			</g>
		</g>
	</g>
	<g id="logo">
		<g id="p_x26_b" class="st1">
			<path id="rt" class="st17" d="M798.8,564.4v-105l24.1-0.4c14.3,0,25.9-10.5,25.9-23.4v-5.8l-49.9,0.5v-57.8h-10.7
				c-13.6,0-24.6,10-24.6,22.3v35.5l-20.7,0.1c-10,0.1-26.7,0-35.7,3.2c-8.1,2.9-18.3,5.5-24.2,13.4v-0.6c0-11.6-8.7-16.1-20.9-16.1
				h-11.2v178.7h15.7c11,0,19.8-8,19.8-18v-81.4c0-16.5,2.6-30.3,9.9-37.3c8.4-8,24.6-11.6,48.2-12.7h19.1c0,0,0,55.3,0,87.2
				c0,6-0.1,13.3-0.2,22c-0.4,43.8,34.5,39.7,65.2,39.7c13.7,0,21.5-7.9,21.5-21.9c0,0,0-0.3,0-4.1v-5.5
				C812.5,579.4,800.2,577.2,798.8,564.4z"/>
			<path id="pe" class="st17" d="M643.6,522.1c0-12.4-1.3-23.5-3.8-33.1c-2.5-9.7-6.4-18.6-11.7-26.7c-8.9-13.1-20.2-23.3-33.9-30.6
				s-28.5-10.9-44.4-10.9c-13.4,0-25.8,2.5-37.1,7.4c-11.3,4.9-21.5,12.2-30.5,22c-8.5,9-14.9,18.9-19.2,29.8
				c-1.9,4.7-3.4,10.8-4.4,15.8c-1,5.3-1.6,13.1-1.6,14c-0.6,10.3-2,19.6-5.2,28.1l0,0c-3.1,8.3-7.9,15.9-15.3,23
				c-12.3,11.8-28,17.1-45,17.1c-16.7,0-31.1-6.2-43.1-18.6s-18.1-27.5-18.1-45.1c0-16.4,6.1-30.8,18.4-43
				c12.3-12.3,26.4-18.4,42.5-18.4c17.5,0,34.2,6.7,45.4,17.9c2,2,8.4,8.4,12.4,12.4c5-14.3,9.5-19.7,16.2-29.2
				c-0.6-0.6-1.9-2.1-2.7-2.9c-18-17.8-42.6-28.6-70-28.6c-11.6,0-22.6,2.2-32.9,6.6s-19.6,10.8-28,19.2l0,0
				c0-12.1-9.8-21.9-21.9-21.9h-11.1v248.5h10.4c12.3,0,22.2-10,22.2-22.2v-69.5c8.8,8.8,18.4,15.3,28.9,19.7s21.9,6.6,34.2,6.6
				c13.9,0,26.2-2.2,37-6.7c10.8-4.5,20.8-11.4,29.9-20.8c1.8-1.8,3.4-3.7,5-5.6l0,0c0.7-0.8,1.3-1.7,2-2.5c0.1-0.2,0.3-0.4,0.4-0.6
				c0.6-0.8,1.2-1.6,1.8-2.5c0,0,0.1-0.1,0.1-0.1l0,0c0.6-0.9,1.3-1.8,1.9-2.8c3.2,4.9,6.9,9.5,11,13.8c9,9.3,19.1,16.3,30.2,20.9
				c11.1,4.7,23.4,7,36.8,7c19.9,0,37.3-5.2,52.4-15.7c15-10.5,26.7-25.6,35-45.4l-17.3-0.3c-16.2,0.3-14.3,1.2-22.4,8.1
				c-3.1,2.6-14.8,11.8-18.3,13.8c-8.8,5.1-18.7,7.6-29.4,7.6c-15.1,0-28.1-4.6-39-13.9s-17.8-21.3-20.5-36.2h152.7L643.6,522.1
				L643.6,522.1z M491.9,498.2c4-14.3,11.2-25.5,21.7-33.8s22.9-12.4,37.2-12.4c14,0,25.9,4,36,12.1c10,8,17,19.4,21.1,34.1
				L491.9,498.2L491.9,498.2z"/>
			<path id="X" class="st17" d="M10.5,333l189.7,255.4c9.7,13.1,25.1,20.8,41.5,20.8h46L96.1,351.4C87.5,339.8,74,333,59.6,333
				L10.5,333L10.5,333z"/>
		</g>
		<g id="color_3_" class="st1">
			<g id=":._3_">
				
					<linearGradient id="SVGID_00000062901257854160373410000007487091272034272932_" gradientUnits="userSpaceOnUse" x1="289.272" y1="1089.099" x2="48.4128" y2="784.9627" gradientTransform="matrix(1 0 0 -1 0 1407.4646)">
					<stop  offset="0" style="stop-color:#0071BC"/>
					<stop  offset="0.5" style="stop-color:#0071BC"/>
					<stop  offset="1" style="stop-color:#4B93EE"/>
				</linearGradient>
				<polygon style="fill:url(#SVGID_00000062901257854160373410000007487091272034272932_);" points="58.5,618.7 49.3,611.9 
					42.5,621 51.7,627.9 				"/>
				
					<linearGradient id="SVGID_00000072282631292218835140000017185446127986338225_" gradientUnits="userSpaceOnUse" x1="262.4082" y1="1110.3748" x2="21.5485" y2="806.238" gradientTransform="matrix(1 0 0 -1 0 1407.4646)">
					<stop  offset="0" style="stop-color:#0071BC"/>
					<stop  offset="0.5" style="stop-color:#0071BC"/>
					<stop  offset="1" style="stop-color:#4B93EE"/>
				</linearGradient>
				<polygon style="fill:url(#SVGID_00000072282631292218835140000017185446127986338225_);" points="31,598.2 21.8,591.4 15,600.6 
					24.2,607.4 				"/>
				
					<linearGradient id="SVGID_00000050661325833513118370000005888468774915657617_" gradientUnits="userSpaceOnUse" x1="297.9554" y1="1082.2228" x2="57.0962" y2="778.0865" gradientTransform="matrix(1 0 0 -1 0 1407.4646)">
					<stop  offset="0" style="stop-color:#0071BC"/>
					<stop  offset="0.5" style="stop-color:#0071BC"/>
					<stop  offset="1" style="stop-color:#4B93EE"/>
				</linearGradient>
				<polygon style="fill:url(#SVGID_00000050661325833513118370000005888468774915657617_);" points="74.5,616.3 65.3,609.5 
					58.5,618.7 67.7,625.5 				"/>
				
					<linearGradient id="SVGID_00000071558748203550504130000012697102224209606042_" gradientUnits="userSpaceOnUse" x1="271.0907" y1="1103.4974" x2="30.2318" y2="799.3618" gradientTransform="matrix(1 0 0 -1 0 1407.4646)">
					<stop  offset="0" style="stop-color:#0071BC"/>
					<stop  offset="0.5" style="stop-color:#0071BC"/>
					<stop  offset="1" style="stop-color:#4B93EE"/>
				</linearGradient>
				<polygon style="fill:url(#SVGID_00000071558748203550504130000012697102224209606042_);" points="40.2,605 47,595.9 37.8,589 
					31,598.2 				"/>
				
					<linearGradient id="SVGID_00000024699868514931613150000004452196543498989191_" gradientUnits="userSpaceOnUse" x1="261.8605" y1="1110.8062" x2="21.0016" y2="806.6703" gradientTransform="matrix(1 0 0 -1 0 1407.4646)">
					<stop  offset="0" style="stop-color:#0071BC"/>
					<stop  offset="0.5" style="stop-color:#0071BC"/>
					<stop  offset="1" style="stop-color:#4B93EE"/>
				</linearGradient>
				<polygon style="fill:url(#SVGID_00000024699868514931613150000004452196543498989191_);" points="28.6,582.2 37.8,589 
					44.6,579.9 35.5,573.1 				"/>
				
					<linearGradient id="SVGID_00000047777742614426278120000011474350368500152212_" gradientUnits="userSpaceOnUse" x1="270.5433" y1="1103.9305" x2="29.6844" y2="799.7948" gradientTransform="matrix(1 0 0 -1 0 1407.4646)">
					<stop  offset="0" style="stop-color:#0071BC"/>
					<stop  offset="0.5" style="stop-color:#0071BC"/>
					<stop  offset="1" style="stop-color:#4B93EE"/>
				</linearGradient>
				<polygon style="fill:url(#SVGID_00000047777742614426278120000011474350368500152212_);" points="51.4,570.7 60.6,577.5 
					53.8,586.7 44.6,579.9 				"/>
			</g>
			<g id="X_4_">
				
					<linearGradient id="SVGID_00000036247944278304980340000000285609279422884481_" gradientUnits="userSpaceOnUse" x1="262.8831" y1="1109.9977" x2="22.0238" y2="805.8615" gradientTransform="matrix(1 0 0 -1 0 1407.4646)">
					<stop  offset="0" style="stop-color:#FF6A32"/>
					<stop  offset="0.5" style="stop-color:#FF007E"/>
					<stop  offset="1" style="stop-color:#842BD0"/>
				</linearGradient>
				<polygon style="fill:url(#SVGID_00000036247944278304980340000000285609279422884481_);" points="237.1,321 246.3,327.9 
					253.1,318.7 244,311.9 				"/>
				
					<linearGradient id="SVGID_00000109009908128181870710000015264160041104157338_" gradientUnits="userSpaceOnUse" x1="289.7414" y1="1088.7274" x2="48.8822" y2="784.5912" gradientTransform="matrix(1 0 0 -1 0 1407.4646)">
					<stop  offset="0" style="stop-color:#FF6A32"/>
					<stop  offset="0.5" style="stop-color:#FF007E"/>
					<stop  offset="1" style="stop-color:#842BD0"/>
				</linearGradient>
				<polygon style="fill:url(#SVGID_00000109009908128181870710000015264160041104157338_);" points="264.6,341.5 273.8,348.3 
					280.6,339.1 271.5,332.3 				"/>
				
					<linearGradient id="SVGID_00000085959103806949659800000012219058481343351966_" gradientUnits="userSpaceOnUse" x1="254.194" y1="1116.8793" x2="13.3347" y2="812.743" gradientTransform="matrix(1 0 0 -1 0 1407.4646)">
					<stop  offset="0" style="stop-color:#FF6A32"/>
					<stop  offset="0.5" style="stop-color:#FF007E"/>
					<stop  offset="1" style="stop-color:#842BD0"/>
				</linearGradient>
				<polygon style="fill:url(#SVGID_00000085959103806949659800000012219058481343351966_);" points="221.1,323.4 230.3,330.2 
					237.1,321 228,314.2 				"/>
				
					<linearGradient id="SVGID_00000168796371429873342220000014622246704683065246_" gradientUnits="userSpaceOnUse" x1="281.0583" y1="1095.604" x2="40.1991" y2="791.4677" gradientTransform="matrix(1 0 0 -1 0 1407.4646)">
					<stop  offset="0" style="stop-color:#FF6A32"/>
					<stop  offset="0.5" style="stop-color:#FF007E"/>
					<stop  offset="1" style="stop-color:#842BD0"/>
				</linearGradient>
				<polygon style="fill:url(#SVGID_00000168796371429873342220000014622246704683065246_);" points="255.5,334.7 248.7,343.9 
					257.8,350.7 264.6,341.5 				"/>
				
					<linearGradient id="SVGID_00000008137704501238031960000012664714606183215525_" gradientUnits="userSpaceOnUse" x1="290.2878" y1="1088.2944" x2="49.4288" y2="784.1587" gradientTransform="matrix(1 0 0 -1 0 1407.4646)">
					<stop  offset="0" style="stop-color:#FF6A32"/>
					<stop  offset="0.5" style="stop-color:#FF007E"/>
					<stop  offset="1" style="stop-color:#842BD0"/>
				</linearGradient>
				<polygon style="fill:url(#SVGID_00000008137704501238031960000012664714606183215525_);" points="267,357.5 257.8,350.7 
					251,359.8 260.2,366.7 				"/>
				
					<linearGradient id="SVGID_00000167367891072576333150000008640597934219150782_" gradientUnits="userSpaceOnUse" x1="281.6079" y1="1095.1687" x2="40.7487" y2="791.0325" gradientTransform="matrix(1 0 0 -1 0 1407.4646)">
					<stop  offset="0" style="stop-color:#FF6A32"/>
					<stop  offset="0.5" style="stop-color:#FF007E"/>
					<stop  offset="1" style="stop-color:#842BD0"/>
				</linearGradient>
				<polygon style="fill:url(#SVGID_00000167367891072576333150000008640597934219150782_);" points="244.2,369 235,362.2 
					241.9,353 251,359.8 				"/>
				
					<linearGradient id="SVGID_00000076583252687189089100000018314230143456934584_" gradientUnits="userSpaceOnUse" x1="276.0759" y1="1099.5499" x2="35.216" y2="795.413" gradientTransform="matrix(1 0 0 -1 0 1407.4646)">
					<stop  offset="0" style="stop-color:#FFB000"/>
					<stop  offset="0.3" style="stop-color:#FF007E"/>
					<stop  offset="0.65" style="stop-color:#842BD0"/>
					<stop  offset="1" style="stop-color:#3FA9F5"/>
				</linearGradient>
				<polyline style="fill:url(#SVGID_00000076583252687189089100000018314230143456934584_);" points="112.2,469.9 42.3,563.9 
					51.5,570.7 58.3,561.5 67.4,568.4 60.6,577.5 69.8,584.4 63,593.5 53.8,586.7 47,595.9 65.3,609.5 72.1,600.3 81.3,607.2 
					88.1,598 78.9,591.2 85.8,582 94.9,588.8 147.8,517.7 147.6,517.8 183.4,469.6 183.4,469.9 253.4,375.8 244.2,369 237.4,378.2 
					228.2,371.4 235,362.2 225.9,355.4 232.7,346.2 241.8,353 248.7,343.9 230.3,330.2 223.5,339.4 214.3,332.6 207.5,341.7 
					216.7,348.5 209.9,357.7 200.7,350.9 147.8,422 				"/>
			</g>
		</g>
	</g>
</g>
<g id="Camada_2">
	<g id="color_4_">
		<g id=":._4_">
			<polygon class="st31" points="175.6,1146.9 143.1,1122.8 119,1155.3 151.5,1179.4 			"/>
			<polygon class="st31" points="78.2,1074.6 45.7,1050.4 21.5,1082.9 54,1107 			"/>
			<polygon class="st31" points="232.3,1138.6 199.8,1114.5 175.6,1146.9 208.1,1171.1 			"/>
			<polygon class="st31" points="110.7,1098.7 134.8,1066.3 102.3,1042.1 78.2,1074.6 			"/>
			<polygon class="st31" points="69.8,1018 102.3,1042.1 126.5,1009.7 94,985.6 			"/>
			<polygon class="st31" points="150.6,977.3 183.1,1001.4 159,1033.8 126.5,1009.7 			"/>
		</g>
		<g id="X_6_">
			<polygon class="st31" points="808.5,93.7 841,117.8 865.2,85.4 832.7,61.3 			"/>
			<polygon class="st31" points="906,166.5 938.5,190.6 962.6,158.2 930.1,134 			"/>
			<polygon class="st31" points="751.8,102 784.3,126.2 808.5,93.7 776,69.6 			"/>
			<polygon class="st31" points="873.5,142 849.3,174.4 881.8,198.5 906,166.1 			"/>
			<polygon class="st31" points="914.3,222.7 881.8,198.5 857.7,230.9 890.1,255.1 			"/>
			<polygon class="st31" points="833.5,263.4 801,239.3 825.2,206.8 857.7,230.9 			"/>
			<polyline class="st31" points="365.9,620.5 118.2,953.1 150.7,977.3 174.8,944.8 207.3,968.9 183.1,1001.4 215.6,1025.5 
				191.4,1057.9 159,1033.8 134.8,1066.3 199.8,1114.5 224,1082.1 256.4,1106.2 280.6,1073.8 248.1,1049.6 272.3,1017.2 
				304.8,1041.3 492.1,789.9 491.1,790 618.3,619.7 618.2,620.5 866,287.9 833.5,263.8 809.3,296.2 776.9,272.1 801,239.7 
				768.5,215.5 792.7,183.1 825.2,207.2 849.3,174.8 784.4,126.5 760.2,159 727.7,134.8 703.6,167.3 736.1,191.4 711.9,223.8 
				679.4,199.7 492.1,451.2 			"/>
		</g>
	</g>
	<path id="rt_00000111906063795777673560000004537849443521193659_" class="st3" d="M2798.3,954.8l0-371.5l85.3-1.5
		c50.6,0,91.6-37.1,91.6-82.8v-20.6l-176.7,1.6V275.5h-37.9c-48.2,0-87.2,35.3-87.2,78.9V480l-73.3,0.2c-35.6,0.4-94.7,0-126.3,11.4
		c-28.6,10.4-64.9,19.5-85.6,47.4v-2.1c0-41-30.8-56.9-74.1-56.9h-39.9v631.9h55.5c38.8,0,70.3-28.5,70.3-63.6v-288
		c0-58.2,9.1-107.2,35.2-132c29.8-28.4,87.1-40.9,170.9-44.9l67.7,0c0,0,0,195.5,0,308.4c-0.2,21.3-0.4,46.9-0.6,77.8
		c-1.3,154.9,122.1,140.4,231.1,140.4c48.6,0,76.2-27.8,76.2-77.4c0,0,0-1.2,0-14.5v-19.4C2847,1008,2803.3,1000.3,2798.3,954.8z"/>
	<path id="pe_00000052803788976643279590000000378104003458124219_" class="st3" d="M2248.5,805.2c0-44-4.5-83-13.4-117.3
		c-9-34.2-22.8-65.7-41.5-94.3c-31.5-46.3-71.6-82.3-120-108.1c-48.5-25.8-101-38.7-157.4-38.7c-47.5,0-91.3,8.7-131.4,26.1
		c-40.1,17.4-76.1,43.3-108.1,77.7c-30,31.7-52.7,66.9-68.1,105.5c-6.6,16.6-12.2,38.1-15.6,55.9c-3.6,18.8-5.6,46.2-5.8,49.6
		c-2.2,36.6-7.3,69.3-18.5,99.2c0,0,0,0,0,0c-11,29.4-28,56.2-54.2,81.2c-43.7,41.8-99.2,60.4-159.6,60.4
		c-59.2,0-110.1-22-152.8-65.9c-42.6-44-64-97.1-64-159.4c0-58.1,21.7-108.9,65.1-152.2c43.4-43.4,93.6-65.1,150.4-65.1
		c61.9,0,121.1,23.6,160.8,63.2c7,7,29.8,29.8,44.1,44c17.6-50.6,33.8-69.8,57.3-103.4c-2.2-2.3-6.8-7.5-9.6-10.3
		c-63.9-63.1-150.9-101.2-247.9-101.2c-41.3,0-80.1,7.7-116.5,23.2c-36.4,15.5-69.4,38.1-99,68v0c0-42.8-34.7-77.4-77.5-77.4h-39.3
		v879h36.8c43.5,0,78.8-35.2,78.8-78.7v-245.8c31.2,31,65.3,54.2,102.5,69.7c37.2,15.5,77.6,23.2,121.2,23.2
		c49.1,0,92.8-7.9,131.1-23.8c38.4-15.9,73.7-40.4,106-73.7c6.2-6.4,12.2-13.1,17.8-19.9c0,0,0,0,0,0c2.4-2.9,4.7-5.9,7-8.9
		c0.5-0.7,1-1.4,1.6-2.1c2.2-2.9,4.3-5.7,6.3-8.7c0.1-0.2,0.3-0.3,0.4-0.5c0,0,0,0,0,0c2.3-3.2,4.5-6.5,6.7-9.8
		c11.5,17.4,24.5,33.7,39,48.7c31.9,32.9,67.6,57.5,106.9,74c39.3,16.4,82.8,24.7,130.3,24.7c70.5,0,132.3-18.5,185.5-55.6
		c53.2-37.1,94.5-90.6,124.1-160.6l-61.2-1.1c-57.4,1.1-50.7,4.4-79.4,28.6c-10.9,9.2-52.3,41.6-64.8,48.7
		c-31.4,18-66.1,27-104.3,27c-53.4,0-99.4-16.3-138.2-49c-38.8-32.7-63-75.4-72.7-128.2h541V805.2z M1711,720.9
		c14-50.5,39.6-90.3,76.8-119.6c37.2-29.2,81.1-43.9,131.7-43.9c49.5,0,91.9,14.2,127.4,42.7c35.4,28.5,60.4,68.7,74.8,120.7H1711z"
		/>
	<path id="X_00000182522338113704771360000016618002573267836082_" class="st3" d="M5.6,136.5L677.8,1040
		c34.5,46.4,89,73.7,146.9,73.7h162.8L308.8,201.4c-30.4-40.8-78.3-64.9-129.3-64.9H5.6z"/>
</g>
</svg>
