<?xml version="1.0" encoding="utf-8"?>
<!-- Generator: Adobe Illustrator 27.5.0, SVG Export Plug-In . SVG Version: 6.00 Build 0)  -->
<svg version="1.1" id="Camada_1" xmlns="http://www.w3.org/2000/svg" xmlns:xlink="http://www.w3.org/1999/xlink" x="0px" y="0px"
	 viewBox="0 0 117 30" style="enable-background:new 0 0 117 30;" xml:space="preserve">
<style type="text/css">
	.st0{fill:#43BF60;}
</style>
<g id="Website">
	<g id="Home" transform="translate(-391.000000, -7443.000000)">
		<g id="Footer" transform="translate(0.000000, 6108.000000)">
			<g id="Selos" transform="translate(0.000000, 89.000000)">
				<g transform="translate(0.000000, 502.000000)">
					<g transform="translate(0.000000, 581.000000)">
						<g id="Group-10" transform="translate(0.000000, 75.000000)">
							<g id="Group-37" transform="translate(391.000000, 38.000000)">
								<g id="compra" transform="translate(0.000000, 50.000000)">
									<path id="Shape" class="st0" d="M24.6,4.9L13.1,0.1c-0.3-0.1-0.6-0.1-0.9,0L0.7,4.9C0.3,5,0,5.5,0,5.9v5.8
										c0,8,4.8,15.2,12.2,18.2c0.3,0.1,0.6,0.1,0.9,0c7.4-3,12.2-10.2,12.2-18.2V5.9C25.3,5.5,25,5,24.6,4.9z M23,11.7
										c0,6.8-4,13-10.3,15.8C6.5,24.8,2.3,18.7,2.3,11.7v-5l10.3-4.3L23,6.7V11.7z M11.4,15.7l5-5c0.5-0.5,1.2-0.5,1.7,0
										s0.5,1.2,0,1.7l-5.9,5.9c-0.5,0.5-1.2,0.5-1.7,0l-3.3-3.3c-0.5-0.5-0.5-1.2,0-1.7c0.5-0.5,1.2-0.5,1.7,0L11.4,15.7z"/>
									<path id="CERTIFICADOSSL" d="M35.9,19.1c-0.2-0.2-0.5-0.4-0.8-0.5s-0.6-0.2-0.9-0.2c-0.4,0-0.8,0.1-1.2,0.3
										c-0.4,0.2-0.6,0.5-0.9,0.9c-0.2,0.4-0.3,0.8-0.3,1.2c0,0.4,0.1,0.8,0.3,1.2c0.2,0.4,0.5,0.6,0.9,0.9
										c0.4,0.2,0.8,0.3,1.2,0.3c0.3,0,0.6-0.1,0.9-0.2c0.3-0.1,0.6-0.3,0.8-0.5l0.3,0.4c-0.3,0.3-0.6,0.5-1,0.6s-0.7,0.2-1.1,0.2
										c-0.5,0-1-0.1-1.5-0.4c-0.4-0.3-0.8-0.6-1.1-1c-0.3-0.4-0.4-0.9-0.4-1.4s0.1-1,0.4-1.4c0.3-0.4,0.6-0.8,1.1-1
										c0.4-0.3,0.9-0.4,1.5-0.4c0.4,0,0.7,0.1,1.1,0.2c0.4,0.1,0.7,0.3,0.9,0.6L35.9,19.1z M37.5,18h3.7v0.5H38v2h2.9V21H38v2.1
										h3.3v0.5h-3.8V18z M46.4,23.6l-1.2-1.8c-0.2,0-0.3,0-0.4,0h-1.5v1.8h-0.6V18h2.1c0.7,0,1.2,0.2,1.6,0.5s0.6,0.8,0.6,1.4
										c0,0.5-0.1,0.9-0.3,1.2c-0.2,0.3-0.5,0.5-1,0.6l1.3,1.9H46.4z M44.8,21.3c0.5,0,0.9-0.1,1.2-0.4c0.3-0.2,0.4-0.6,0.4-1.1
										c0-0.4-0.1-0.8-0.4-1c-0.3-0.2-0.7-0.4-1.2-0.4h-1.5v2.8H44.8z M47.7,18h4.2v0.5h-1.8v5.1h-0.6v-5.1h-1.8V18z M52.9,18h0.6
										v5.6h-0.6V18z M55.2,18h3.5v0.5h-3v2.2h2.6v0.5h-2.6v2.4h-0.6V18z M59.7,18h0.6v5.6h-0.6V18z M66.1,19.1
										c-0.2-0.2-0.5-0.4-0.8-0.5s-0.6-0.2-0.9-0.2c-0.4,0-0.8,0.1-1.2,0.3c-0.4,0.2-0.6,0.5-0.9,0.9C62.1,20,62,20.4,62,20.8
										c0,0.4,0.1,0.8,0.3,1.2c0.2,0.4,0.5,0.6,0.9,0.9c0.4,0.2,0.8,0.3,1.2,0.3c0.3,0,0.6-0.1,0.9-0.2c0.3-0.1,0.6-0.3,0.8-0.5
										l0.3,0.4c-0.3,0.3-0.6,0.5-1,0.6c-0.4,0.1-0.7,0.2-1.1,0.2c-0.5,0-1-0.1-1.5-0.4c-0.4-0.3-0.8-0.6-1.1-1
										c-0.3-0.4-0.4-0.9-0.4-1.4s0.1-1,0.4-1.4c0.3-0.4,0.6-0.8,1.1-1s0.9-0.4,1.5-0.4c0.4,0,0.7,0.1,1.1,0.2
										c0.4,0.1,0.7,0.3,0.9,0.6L66.1,19.1z M71.8,23.6l-0.7-1.5H68l-0.7,1.5h-0.6l2.5-5.6h0.6l2.5,5.6H71.8z M68.2,21.6h2.7
										l-1.3-3L68.2,21.6z M75.5,18c0.5,0,1,0.1,1.5,0.4c0.4,0.2,0.8,0.6,1,1c0.3,0.4,0.4,0.9,0.4,1.4s-0.1,1-0.4,1.4
										c-0.3,0.4-0.6,0.8-1,1c-0.4,0.2-0.9,0.4-1.5,0.4h-2.2V18H75.5z M75.5,23.1c0.4,0,0.8-0.1,1.2-0.3c0.4-0.2,0.6-0.5,0.8-0.8
										c0.2-0.3,0.3-0.7,0.3-1.2s-0.1-0.8-0.3-1.2c-0.2-0.4-0.5-0.6-0.8-0.8s-0.7-0.3-1.2-0.3h-1.7v4.6H75.5z M81.9,18
										c0.5,0,1,0.1,1.5,0.4s0.8,0.6,1.1,1c0.3,0.4,0.4,0.9,0.4,1.4s-0.1,1-0.4,1.4c-0.3,0.4-0.6,0.8-1.1,1
										c-0.4,0.3-0.9,0.4-1.5,0.4s-1-0.1-1.5-0.4c-0.4-0.3-0.8-0.6-1.1-1c-0.3-0.4-0.4-0.9-0.4-1.4s0.1-1,0.4-1.4
										c0.3-0.4,0.6-0.8,1.1-1S81.4,18,81.9,18z M81.9,18.5c-0.4,0-0.8,0.1-1.2,0.3c-0.4,0.2-0.7,0.5-0.9,0.8
										c-0.2,0.4-0.3,0.7-0.3,1.2c0,0.4,0.1,0.8,0.3,1.2c0.2,0.4,0.5,0.6,0.9,0.9c0.4,0.2,0.8,0.3,1.2,0.3c0.4,0,0.8-0.1,1.2-0.3
										s0.6-0.5,0.9-0.9c0.2-0.4,0.3-0.8,0.3-1.2c0-0.4-0.1-0.8-0.3-1.2c-0.2-0.4-0.5-0.6-0.9-0.8C82.7,18.6,82.3,18.5,81.9,18.5z
										 M91.3,18.9c-0.2-0.1-0.5-0.3-0.8-0.3c-0.3-0.1-0.5-0.1-0.8-0.1c-0.4,0-0.7,0.1-0.9,0.2c-0.2,0.2-0.3,0.4-0.3,0.6
										c0,0.2,0.1,0.4,0.2,0.6c0.1,0.1,0.3,0.3,0.5,0.3c0.2,0.1,0.4,0.2,0.8,0.3c0.4,0.1,0.7,0.2,0.9,0.3c0.2,0.1,0.4,0.3,0.6,0.5
										c0.2,0.2,0.2,0.5,0.2,0.8c0,0.3-0.1,0.6-0.3,0.8c-0.2,0.2-0.4,0.4-0.7,0.5s-0.7,0.2-1,0.2c-0.4,0-0.8-0.1-1.1-0.2
										c-0.4-0.2-0.7-0.4-1-0.6l0.3-0.5c0.3,0.2,0.5,0.4,0.9,0.6c0.3,0.1,0.7,0.2,1,0.2c0.4,0,0.8-0.1,1-0.3s0.4-0.4,0.4-0.7
										c0-0.2-0.1-0.4-0.2-0.6c-0.1-0.1-0.3-0.3-0.5-0.3c-0.2-0.1-0.4-0.2-0.8-0.3c-0.4-0.1-0.7-0.2-0.9-0.3s-0.4-0.3-0.6-0.5
										c-0.2-0.2-0.2-0.5-0.2-0.8c0-0.3,0.1-0.5,0.2-0.7c0.2-0.2,0.4-0.4,0.7-0.5c0.3-0.1,0.6-0.2,1-0.2c0.3,0,0.6,0,0.9,0.1
										c0.3,0.1,0.6,0.2,0.8,0.4L91.3,18.9z M96.2,18.9c-0.2-0.1-0.5-0.3-0.8-0.3c-0.3-0.1-0.5-0.1-0.8-0.1
										c-0.4,0-0.7,0.1-0.9,0.2s-0.3,0.4-0.3,0.6c0,0.2,0.1,0.4,0.2,0.6c0.1,0.1,0.3,0.3,0.5,0.3c0.2,0.1,0.4,0.2,0.8,0.3
										c0.4,0.1,0.7,0.2,0.9,0.3c0.2,0.1,0.4,0.3,0.6,0.5c0.2,0.2,0.2,0.5,0.2,0.8c0,0.3-0.1,0.6-0.3,0.8s-0.4,0.4-0.7,0.5
										s-0.7,0.2-1,0.2c-0.4,0-0.8-0.1-1.1-0.2c-0.4-0.2-0.7-0.4-1-0.6l0.3-0.5c0.3,0.2,0.5,0.4,0.9,0.6c0.3,0.1,0.7,0.2,1,0.2
										c0.4,0,0.8-0.1,1-0.3c0.3-0.2,0.4-0.4,0.4-0.7c0-0.2-0.1-0.4-0.2-0.6c-0.1-0.1-0.3-0.3-0.5-0.3c-0.2-0.1-0.4-0.2-0.8-0.3
										c-0.4-0.1-0.7-0.2-0.9-0.3c-0.2-0.1-0.4-0.3-0.6-0.5c-0.2-0.2-0.2-0.5-0.2-0.8c0-0.3,0.1-0.5,0.2-0.7
										c0.2-0.2,0.4-0.4,0.7-0.5s0.6-0.2,1-0.2c0.3,0,0.6,0,0.9,0.1c0.3,0.1,0.6,0.2,0.8,0.4L96.2,18.9z M98,18h0.6v5.1h2.5v0.5
										h-3V18z"/>
									<path id="SITEPROTEGIDO" d="M36.6,9.9c-0.4-0.2-0.8-0.4-1.2-0.6c-0.4-0.2-0.8-0.2-1.1-0.2c-0.2,0-0.3,0-0.4,0.1
										c-0.1,0.1-0.2,0.2-0.2,0.3c0,0.2,0.1,0.3,0.3,0.4c0.2,0.1,0.5,0.2,1,0.3c0.5,0.1,0.9,0.3,1.2,0.4c0.3,0.1,0.6,0.4,0.8,0.7
										c0.2,0.3,0.4,0.7,0.4,1.2c0,0.5-0.1,0.9-0.4,1.2s-0.6,0.6-1,0.8c-0.4,0.2-0.9,0.2-1.5,0.2c-0.6,0-1.2-0.1-1.8-0.3
										c-0.6-0.2-1.1-0.5-1.6-0.8l0.8-1.6c0.4,0.3,0.8,0.6,1.3,0.8s0.9,0.3,1.3,0.3c0.2,0,0.4,0,0.5-0.1c0.1-0.1,0.2-0.2,0.2-0.4
										c0-0.2-0.1-0.3-0.3-0.4c-0.2-0.1-0.5-0.2-1-0.3c-0.5-0.1-0.9-0.3-1.2-0.4s-0.6-0.3-0.8-0.6c-0.2-0.3-0.4-0.7-0.4-1.1
										c0-0.5,0.1-0.8,0.4-1.2s0.6-0.6,1-0.8c0.4-0.2,0.9-0.3,1.5-0.3c0.5,0,1,0.1,1.6,0.2c0.5,0.2,1,0.3,1.4,0.6L36.6,9.9z
										 M38.1,7.6h2.1v7h-2.1V7.6z M40.9,7.6H47v1.7h-2v5.4h-2.1V9.3h-2V7.6z M47.7,7.6h5.7v1.6h-3.7v1.1h3.3v1.6h-3.3V13h3.8v1.6
										h-5.8V7.6z M59.8,7.6c0.9,0,1.6,0.2,2.1,0.7c0.5,0.4,0.7,1,0.7,1.8c0,0.8-0.2,1.5-0.7,1.9c-0.5,0.5-1.2,0.7-2.1,0.7l-1.1,0
										v1.9h-2.1v-7H59.8z M59.7,11.1c0.3,0,0.6-0.1,0.7-0.2c0.2-0.2,0.3-0.4,0.3-0.7c0-0.3-0.1-0.5-0.3-0.7
										c-0.2-0.2-0.4-0.2-0.7-0.2h-1v1.9H59.7z M67.6,14.6l-0.9-1.9h-1.1v1.9h-2.1v-7h3.3c0.9,0,1.7,0.2,2.2,0.7
										c0.5,0.4,0.8,1,0.8,1.8c0,0.5-0.1,1-0.3,1.3s-0.5,0.7-0.9,0.9l1.4,2.3H67.6z M65.5,11.1h1.2c0.3,0,0.6-0.1,0.7-0.2
										c0.2-0.2,0.3-0.4,0.3-0.7c0-0.3-0.1-0.5-0.3-0.7S67,9.2,66.7,9.2h-1.2V11.1z M74.1,7.5c0.7,0,1.4,0.2,2,0.5
										c0.6,0.3,1,0.7,1.4,1.3s0.5,1.2,0.5,1.9c0,0.7-0.2,1.3-0.5,1.9s-0.8,1-1.4,1.3c-0.6,0.3-1.2,0.5-2,0.5
										c-0.7,0-1.4-0.2-2-0.5c-0.6-0.3-1-0.8-1.4-1.3s-0.5-1.2-0.5-1.9c0-0.7,0.2-1.3,0.5-1.9s0.8-1,1.4-1.3
										C72.7,7.6,73.4,7.5,74.1,7.5z M74.2,9.2c-0.3,0-0.6,0.1-0.9,0.2c-0.3,0.2-0.5,0.4-0.6,0.7c-0.2,0.3-0.2,0.6-0.2,1
										c0,0.4,0.1,0.7,0.2,1c0.2,0.3,0.4,0.5,0.6,0.7c0.3,0.2,0.5,0.3,0.9,0.3c0.3,0,0.6-0.1,0.8-0.3c0.3-0.2,0.5-0.4,0.6-0.7
										s0.2-0.6,0.2-1c0-0.4-0.1-0.7-0.2-1c-0.1-0.3-0.3-0.5-0.6-0.7C74.7,9.3,74.5,9.2,74.2,9.2z M77.9,7.6h6.2v1.7h-2v5.4h-2.1
										V9.3h-2V7.6z M84.7,7.6h5.7v1.6h-3.7v1.1h3.3v1.6h-3.3V13h3.8v1.6h-5.8V7.6z M96.1,11h1.8v2.8c-0.4,0.3-0.8,0.5-1.4,0.7
										c-0.6,0.2-1.1,0.3-1.6,0.3c-0.7,0-1.4-0.2-1.9-0.5c-0.6-0.3-1-0.8-1.3-1.3c-0.3-0.6-0.5-1.2-0.5-1.9c0-0.7,0.2-1.3,0.5-1.9
										s0.8-1,1.4-1.3c0.6-0.3,1.3-0.5,2-0.5c0.5,0,1.1,0.1,1.6,0.3c0.5,0.2,1,0.5,1.4,0.8L96.8,10c-0.2-0.2-0.5-0.4-0.8-0.6
										c-0.3-0.1-0.6-0.2-0.9-0.2c-0.3,0-0.6,0.1-0.9,0.2c-0.3,0.2-0.5,0.4-0.6,0.7c-0.2,0.3-0.2,0.6-0.2,1c0,0.4,0.1,0.7,0.2,1
										s0.4,0.5,0.6,0.7c0.3,0.2,0.6,0.2,0.9,0.2c0.3,0,0.7-0.1,1.1-0.3V11z M99,7.6h2.1v7H99V7.6z M105.3,7.6
										c0.7,0,1.4,0.1,2,0.4c0.6,0.3,1,0.7,1.3,1.2c0.3,0.5,0.5,1.1,0.5,1.8s-0.2,1.3-0.5,1.8c-0.3,0.5-0.8,0.9-1.3,1.2
										c-0.6,0.3-1.2,0.4-2,0.4h-3v-7H105.3z M105.3,13c0.5,0,0.9-0.2,1.2-0.5c0.3-0.3,0.4-0.8,0.4-1.4s-0.2-1-0.5-1.4
										c-0.3-0.3-0.7-0.5-1.2-0.5h-0.9V13H105.3z M113.2,7.5c0.7,0,1.4,0.2,2,0.5c0.6,0.3,1,0.7,1.4,1.3s0.5,1.2,0.5,1.9
										c0,0.7-0.2,1.3-0.5,1.9s-0.8,1-1.4,1.3c-0.6,0.3-1.2,0.5-2,0.5c-0.7,0-1.4-0.2-2-0.5c-0.6-0.3-1-0.8-1.4-1.3
										s-0.5-1.2-0.5-1.9c0-0.7,0.2-1.3,0.5-1.9s0.8-1,1.4-1.3C111.8,7.6,112.5,7.5,113.2,7.5z M113.2,9.2c-0.3,0-0.6,0.1-0.9,0.2
										c-0.3,0.2-0.5,0.4-0.6,0.7c-0.2,0.3-0.2,0.6-0.2,1c0,0.4,0.1,0.7,0.2,1c0.2,0.3,0.4,0.5,0.6,0.7c0.3,0.2,0.5,0.3,0.9,0.3
										c0.3,0,0.6-0.1,0.8-0.3c0.3-0.2,0.5-0.4,0.6-0.7s0.2-0.6,0.2-1c0-0.4-0.1-0.7-0.2-1c-0.1-0.3-0.3-0.5-0.6-0.7
										C113.8,9.3,113.5,9.2,113.2,9.2z"/>
								</g>
							</g>
						</g>
					</g>
				</g>
			</g>
		</g>
	</g>
</g>
</svg>
